<svg width="780" height="500" viewBox="0 0 780 500" fill="none" xmlns="http://www.w3.org/2000/svg">
<rect width="780" height="500" fill="#2E3D49"/>
<path d="M89 79.5L83.2265 89.5H94.7735L89 79.5ZM89 88.5H88V433.5H89H90V88.5H89Z" fill="white"/>
<path d="M669 434L659 428.226V439.774L669 434ZM660 434V433L88 433V434V435L660 435V434Z" fill="white"/>
<path d="M688.561 439V430.104H685.537V428.536H693.441V430.104H690.417V439H688.561ZM694.811 439V431.144H696.651V439H694.811ZM695.739 429.768C695.409 429.768 695.142 429.672 694.939 429.48C694.737 429.288 694.635 429.032 694.635 428.712C694.635 428.403 694.737 428.152 694.939 427.96C695.142 427.768 695.409 427.672 695.739 427.672C696.07 427.672 696.337 427.768 696.539 427.96C696.742 428.152 696.843 428.403 696.843 428.712C696.843 429.032 696.742 429.288 696.539 429.48C696.337 429.672 696.07 429.768 695.739 429.768ZM698.786 439V431.144H700.306L700.434 432.216H700.498C700.829 431.864 701.186 431.565 701.57 431.32C701.965 431.075 702.408 430.952 702.898 430.952C703.474 430.952 703.933 431.08 704.274 431.336C704.626 431.581 704.893 431.923 705.074 432.36C705.448 431.955 705.837 431.619 706.242 431.352C706.658 431.085 707.112 430.952 707.602 430.952C708.434 430.952 709.048 431.224 709.442 431.768C709.837 432.312 710.034 433.08 710.034 434.072V439H708.178V434.312C708.178 433.661 708.077 433.203 707.874 432.936C707.682 432.669 707.384 432.536 706.978 432.536C706.488 432.536 705.938 432.861 705.33 433.512V439H703.49V434.312C703.49 433.661 703.389 433.203 703.186 432.936C702.994 432.669 702.69 432.536 702.274 432.536C701.784 432.536 701.234 432.861 700.626 433.512V439H698.786ZM715.419 439.192C714.693 439.192 714.037 439.032 713.451 438.712C712.864 438.381 712.4 437.912 712.059 437.304C711.717 436.685 711.547 435.944 711.547 435.08C711.547 434.227 711.717 433.491 712.059 432.872C712.411 432.253 712.864 431.779 713.419 431.448C713.973 431.117 714.555 430.952 715.163 430.952C715.877 430.952 716.475 431.112 716.955 431.432C717.435 431.741 717.797 432.179 718.043 432.744C718.288 433.299 718.411 433.944 718.411 434.68C718.411 435.064 718.384 435.363 718.331 435.576H713.339C713.424 436.269 713.675 436.808 714.091 437.192C714.507 437.576 715.029 437.768 715.659 437.768C716 437.768 716.315 437.72 716.603 437.624C716.901 437.517 717.195 437.373 717.483 437.192L718.107 438.344C717.733 438.589 717.317 438.792 716.859 438.952C716.4 439.112 715.92 439.192 715.419 439.192ZM713.323 434.328H716.811C716.811 433.72 716.677 433.245 716.411 432.904C716.144 432.552 715.744 432.376 715.211 432.376C714.752 432.376 714.341 432.547 713.979 432.888C713.627 433.219 713.408 433.699 713.323 434.328Z" fill="white"/>
<path d="M63.8045 66V55.536H67.1005C67.8792 55.536 68.5725 55.6373 69.1805 55.84C69.7885 56.0427 70.2685 56.3787 70.6205 56.848C70.9725 57.3173 71.1485 57.9573 71.1485 58.768C71.1485 59.536 70.9725 60.1707 70.6205 60.672C70.2685 61.1733 69.7938 61.5467 69.1965 61.792C68.5992 62.0373 67.9218 62.16 67.1645 62.16H65.6605V66H63.8045ZM65.6605 60.672H67.0205C68.5565 60.672 69.3245 60.0373 69.3245 58.768C69.3245 58.1067 69.1218 57.6533 68.7165 57.408C68.3218 57.152 67.7352 57.024 66.9565 57.024H65.6605V60.672ZM72.7448 66V58.144H74.2648L74.3928 59.536H74.4568C74.7341 59.024 75.0701 58.6347 75.4648 58.368C75.8594 58.0907 76.2648 57.952 76.6808 57.952C77.0541 57.952 77.3528 58.0053 77.5768 58.112L77.2568 59.712C77.1181 59.6693 76.9901 59.6373 76.8728 59.616C76.7554 59.5947 76.6114 59.584 76.4408 59.584C76.1314 59.584 75.8061 59.7067 75.4648 59.952C75.1234 60.1867 74.8301 60.6027 74.5848 61.2V66H72.7448ZM81.561 66.192C80.9104 66.192 80.3024 66.032 79.737 65.712C79.1717 65.3813 78.713 64.912 78.361 64.304C78.009 63.6853 77.833 62.944 77.833 62.08C77.833 61.2053 78.009 60.464 78.361 59.856C78.713 59.2373 79.1717 58.768 79.737 58.448C80.3024 58.1173 80.9104 57.952 81.561 57.952C82.2224 57.952 82.8357 58.1173 83.401 58.448C83.9664 58.768 84.425 59.2373 84.777 59.856C85.129 60.464 85.305 61.2053 85.305 62.08C85.305 62.944 85.129 63.6853 84.777 64.304C84.425 64.912 83.9664 65.3813 83.401 65.712C82.8357 66.032 82.2224 66.192 81.561 66.192ZM81.561 64.688C82.137 64.688 82.5904 64.448 82.921 63.968C83.2517 63.488 83.417 62.8587 83.417 62.08C83.417 61.2907 83.2517 60.656 82.921 60.176C82.5904 59.696 82.137 59.456 81.561 59.456C80.985 59.456 80.5317 59.696 80.201 60.176C79.881 60.656 79.721 61.2907 79.721 62.08C79.721 62.8587 79.881 63.488 80.201 63.968C80.5317 64.448 80.985 64.688 81.561 64.688ZM90.1941 66.192C89.4794 66.192 88.8341 66.032 88.2581 65.712C87.6927 65.3813 87.2394 64.912 86.8981 64.304C86.5674 63.6853 86.4021 62.944 86.4021 62.08C86.4021 61.2053 86.5834 60.464 86.9461 59.856C87.3087 59.2373 87.7887 58.768 88.3861 58.448C88.9941 58.1173 89.6447 57.952 90.3381 57.952C90.8394 57.952 91.2767 58.0373 91.6501 58.208C92.0234 58.3787 92.3541 58.5867 92.6421 58.832L91.7461 60.032C91.5434 59.8507 91.3354 59.712 91.1221 59.616C90.9087 59.5093 90.6794 59.456 90.4341 59.456C89.8047 59.456 89.2874 59.696 88.8821 60.176C88.4874 60.656 88.2901 61.2907 88.2901 62.08C88.2901 62.8587 88.4821 63.488 88.8661 63.968C89.2607 64.448 89.7674 64.688 90.3861 64.688C90.6954 64.688 90.9834 64.624 91.2501 64.496C91.5274 64.3573 91.7781 64.1973 92.0021 64.016L92.7541 65.232C92.3914 65.552 91.9861 65.792 91.5381 65.952C91.0901 66.112 90.6421 66.192 90.1941 66.192ZM97.0618 66.192C96.3365 66.192 95.6805 66.032 95.0938 65.712C94.5072 65.3813 94.0432 64.912 93.7018 64.304C93.3605 63.6853 93.1898 62.944 93.1898 62.08C93.1898 61.2267 93.3605 60.4907 93.7018 59.872C94.0538 59.2533 94.5072 58.7787 95.0618 58.448C95.6165 58.1173 96.1978 57.952 96.8058 57.952C97.5205 57.952 98.1178 58.112 98.5978 58.432C99.0778 58.7413 99.4405 59.1787 99.6858 59.744C99.9312 60.2987 100.054 60.944 100.054 61.68C100.054 62.064 100.027 62.3627 99.9738 62.576H94.9818C95.0672 63.2693 95.3178 63.808 95.7338 64.192C96.1498 64.576 96.6725 64.768 97.3018 64.768C97.6432 64.768 97.9578 64.72 98.2458 64.624C98.5445 64.5173 98.8378 64.3733 99.1258 64.192L99.7498 65.344C99.3765 65.5893 98.9605 65.792 98.5018 65.952C98.0432 66.112 97.5632 66.192 97.0618 66.192ZM94.9658 61.328H98.4538C98.4538 60.72 98.3205 60.2453 98.0538 59.904C97.7872 59.552 97.3872 59.376 96.8538 59.376C96.3952 59.376 95.9845 59.5467 95.6218 59.888C95.2698 60.2187 95.0512 60.6987 94.9658 61.328ZM103.791 66.192C103.258 66.192 102.724 66.0907 102.191 65.888C101.658 65.6747 101.199 65.4133 100.815 65.104L101.679 63.92C102.031 64.1867 102.383 64.4 102.735 64.56C103.087 64.72 103.46 64.8 103.855 64.8C104.282 64.8 104.596 64.7093 104.799 64.528C105.002 64.3467 105.103 64.1227 105.103 63.856C105.103 63.632 105.018 63.4507 104.847 63.312C104.687 63.1627 104.479 63.0347 104.223 62.928C103.967 62.8107 103.7 62.6987 103.423 62.592C103.082 62.464 102.74 62.3093 102.399 62.128C102.068 61.936 101.796 61.696 101.583 61.408C101.37 61.1093 101.263 60.7413 101.263 60.304C101.263 59.6107 101.519 59.0453 102.031 58.608C102.543 58.1707 103.236 57.952 104.111 57.952C104.666 57.952 105.162 58.048 105.599 58.24C106.036 58.432 106.415 58.6507 106.735 58.896L105.887 60.016C105.61 59.8133 105.327 59.6533 105.039 59.536C104.762 59.408 104.468 59.344 104.159 59.344C103.764 59.344 103.471 59.4293 103.279 59.6C103.087 59.76 102.991 59.9627 102.991 60.208C102.991 60.5173 103.151 60.752 103.471 60.912C103.791 61.072 104.164 61.2267 104.591 61.376C104.954 61.504 105.306 61.664 105.647 61.856C105.988 62.0373 106.271 62.2773 106.495 62.576C106.73 62.8747 106.847 63.2693 106.847 63.76C106.847 64.432 106.586 65.008 106.063 65.488C105.54 65.9573 104.783 66.192 103.791 66.192ZM110.469 66.192C109.936 66.192 109.403 66.0907 108.869 65.888C108.336 65.6747 107.877 65.4133 107.493 65.104L108.357 63.92C108.709 64.1867 109.061 64.4 109.413 64.56C109.765 64.72 110.139 64.8 110.533 64.8C110.96 64.8 111.275 64.7093 111.477 64.528C111.68 64.3467 111.781 64.1227 111.781 63.856C111.781 63.632 111.696 63.4507 111.525 63.312C111.365 63.1627 111.157 63.0347 110.901 62.928C110.645 62.8107 110.379 62.6987 110.101 62.592C109.76 62.464 109.419 62.3093 109.077 62.128C108.747 61.936 108.475 61.696 108.261 61.408C108.048 61.1093 107.941 60.7413 107.941 60.304C107.941 59.6107 108.197 59.0453 108.709 58.608C109.221 58.1707 109.915 57.952 110.789 57.952C111.344 57.952 111.84 58.048 112.277 58.24C112.715 58.432 113.093 58.6507 113.413 58.896L112.565 60.016C112.288 59.8133 112.005 59.6533 111.717 59.536C111.44 59.408 111.147 59.344 110.837 59.344C110.443 59.344 110.149 59.4293 109.957 59.6C109.765 59.76 109.669 59.9627 109.669 60.208C109.669 60.5173 109.829 60.752 110.149 60.912C110.469 61.072 110.843 61.2267 111.269 61.376C111.632 61.504 111.984 61.664 112.325 61.856C112.667 62.0373 112.949 62.2773 113.173 62.576C113.408 62.8747 113.525 63.2693 113.525 63.76C113.525 64.432 113.264 65.008 112.741 65.488C112.219 65.9573 111.461 66.192 110.469 66.192Z" fill="white"/>
<path d="M89 104H654V434H89V104Z" fill="white" fill-opacity="0.05"/>
<path d="M89 218H459V434H89V218Z" fill="white" fill-opacity="0.05"/>
<path d="M89 326H274V434H89V326Z" fill="white" fill-opacity="0.05"/>
<path d="M274 419H273V449H274H275V419H274Z" fill="white"/>
<path d="M459 419H458V449H459H460V419H459Z" fill="white"/>
<path d="M654 104L642.453 104.058L648.277 114.029L654 104ZM649.964 105.199C649.488 105.478 649.327 106.09 649.605 106.567C649.884 107.044 650.496 107.205 650.973 106.926L650.469 106.062L649.964 105.199ZM643.911 111.051C644.387 110.772 644.548 110.16 644.27 109.683C643.991 109.206 643.379 109.045 642.902 109.324L643.406 110.187L643.911 111.051ZM635.839 113.449C635.363 113.728 635.202 114.34 635.48 114.817C635.759 115.294 636.371 115.455 636.848 115.176L636.344 114.312L635.839 113.449ZM629.786 119.301C630.262 119.022 630.423 118.41 630.145 117.933C629.866 117.456 629.254 117.295 628.777 117.574L629.281 118.437L629.786 119.301ZM621.714 121.699C621.238 121.978 621.077 122.59 621.355 123.067C621.634 123.544 622.246 123.705 622.723 123.426L622.219 122.562L621.714 121.699ZM615.661 127.551C616.137 127.272 616.298 126.66 616.02 126.183C615.741 125.706 615.129 125.545 614.652 125.824L615.156 126.688L615.661 127.551ZM607.589 129.949C607.113 130.228 606.952 130.84 607.23 131.317C607.509 131.794 608.121 131.955 608.598 131.676L608.094 130.813L607.589 129.949ZM601.536 135.801C602.012 135.522 602.173 134.91 601.895 134.433C601.616 133.956 601.004 133.795 600.527 134.074L601.031 134.938L601.536 135.801ZM593.464 138.199C592.988 138.478 592.827 139.09 593.105 139.567C593.384 140.044 593.996 140.205 594.473 139.926L593.969 139.063L593.464 138.199ZM587.411 144.051C587.887 143.772 588.048 143.16 587.77 142.683C587.491 142.206 586.879 142.045 586.402 142.324L586.906 143.188L587.411 144.051ZM579.339 146.449C578.863 146.728 578.702 147.34 578.98 147.817C579.259 148.294 579.871 148.455 580.348 148.176L579.844 147.313L579.339 146.449ZM573.286 152.301C573.762 152.022 573.923 151.41 573.645 150.933C573.366 150.456 572.754 150.295 572.277 150.574L572.781 151.438L573.286 152.301ZM565.214 154.699C564.738 154.978 564.577 155.59 564.855 156.067C565.134 156.544 565.746 156.705 566.223 156.426L565.719 155.563L565.214 154.699ZM559.161 160.551C559.637 160.272 559.798 159.66 559.52 159.183C559.241 158.706 558.629 158.545 558.152 158.824L558.656 159.688L559.161 160.551ZM551.089 162.949C550.613 163.228 550.452 163.84 550.73 164.317C551.009 164.794 551.621 164.955 552.098 164.676L551.594 163.813L551.089 162.949ZM545.036 168.801C545.512 168.522 545.673 167.91 545.395 167.433C545.116 166.956 544.504 166.795 544.027 167.074L544.531 167.938L545.036 168.801ZM536.964 171.199C536.488 171.478 536.327 172.09 536.605 172.567C536.884 173.044 537.496 173.205 537.973 172.926L537.469 172.063L536.964 171.199ZM530.911 177.051C531.387 176.772 531.548 176.16 531.27 175.683C530.991 175.206 530.379 175.045 529.902 175.324L530.406 176.188L530.911 177.051ZM522.839 179.449C522.363 179.728 522.202 180.34 522.48 180.817C522.759 181.294 523.371 181.455 523.848 181.176L523.344 180.313L522.839 179.449ZM516.786 185.301C517.262 185.022 517.423 184.41 517.145 183.933C516.866 183.456 516.254 183.295 515.777 183.574L516.281 184.438L516.786 185.301ZM508.714 187.699C508.238 187.978 508.077 188.59 508.355 189.067C508.634 189.544 509.246 189.705 509.723 189.426L509.219 188.563L508.714 187.699ZM502.661 193.551C503.137 193.272 503.298 192.66 503.02 192.183C502.741 191.706 502.129 191.545 501.652 191.824L502.156 192.688L502.661 193.551ZM494.589 195.949C494.113 196.228 493.952 196.84 494.23 197.317C494.509 197.794 495.121 197.955 495.598 197.676L495.094 196.813L494.589 195.949ZM488.536 201.801C489.012 201.522 489.173 200.91 488.895 200.433C488.616 199.956 488.004 199.795 487.527 200.074L488.031 200.938L488.536 201.801ZM480.464 204.199C479.988 204.478 479.827 205.09 480.105 205.567C480.384 206.044 480.996 206.205 481.473 205.926L480.969 205.063L480.464 204.199ZM474.411 210.051C474.887 209.772 475.048 209.16 474.77 208.683C474.491 208.206 473.879 208.045 473.402 208.324L473.906 209.188L474.411 210.051ZM466.339 212.449C465.863 212.728 465.702 213.34 465.98 213.817C466.259 214.294 466.871 214.455 467.348 214.176L466.844 213.313L466.339 212.449ZM460.286 218.301C460.762 218.022 460.923 217.41 460.645 216.933C460.366 216.456 459.754 216.295 459.277 216.574L459.781 217.438L460.286 218.301ZM452.214 220.699C451.737 220.978 451.577 221.59 451.855 222.067C452.134 222.544 452.746 222.705 453.223 222.426L452.719 221.563L452.214 220.699ZM446.161 226.551C446.637 226.272 446.798 225.66 446.52 225.183C446.241 224.706 445.629 224.545 445.152 224.824L445.656 225.688L446.161 226.551ZM438.089 228.949C437.612 229.228 437.452 229.84 437.73 230.317C438.009 230.794 438.621 230.955 439.098 230.676L438.594 229.813L438.089 228.949ZM432.036 234.801C432.512 234.522 432.673 233.91 432.395 233.433C432.116 232.956 431.504 232.795 431.027 233.074L431.531 233.938L432.036 234.801ZM423.964 237.199C423.488 237.478 423.327 238.09 423.605 238.567C423.884 239.044 424.496 239.205 424.973 238.926L424.469 238.063L423.964 237.199ZM417.911 243.051C418.388 242.772 418.548 242.16 418.27 241.683C417.991 241.206 417.379 241.045 416.902 241.324L417.406 242.187L417.911 243.051ZM409.839 245.449C409.363 245.728 409.202 246.34 409.48 246.817C409.759 247.294 410.371 247.455 410.848 247.176L410.344 246.312L409.839 245.449ZM403.786 251.301C404.263 251.022 404.423 250.41 404.145 249.933C403.866 249.456 403.254 249.295 402.777 249.574L403.281 250.437L403.786 251.301ZM395.714 253.699C395.238 253.978 395.077 254.59 395.355 255.067C395.634 255.544 396.246 255.705 396.723 255.426L396.219 254.562L395.714 253.699ZM389.661 259.551C390.138 259.272 390.298 258.66 390.02 258.183C389.741 257.706 389.129 257.545 388.652 257.824L389.156 258.687L389.661 259.551ZM381.589 261.949C381.113 262.227 380.952 262.84 381.23 263.317C381.509 263.794 382.121 263.955 382.598 263.676L382.094 262.812L381.589 261.949ZM375.536 267.801C376.013 267.522 376.173 266.91 375.895 266.433C375.616 265.956 375.004 265.795 374.527 266.074L375.031 266.937L375.536 267.801ZM367.465 270.199C366.988 270.477 366.827 271.09 367.105 271.567C367.384 272.044 367.996 272.204 368.473 271.926L367.969 271.062L367.465 270.199ZM361.411 276.051C361.888 275.772 362.048 275.16 361.77 274.683C361.491 274.206 360.879 274.045 360.402 274.324L360.906 275.187L361.411 276.051ZM353.34 278.449C352.863 278.727 352.702 279.34 352.98 279.817C353.259 280.294 353.871 280.454 354.348 280.176L353.844 279.312L353.34 278.449ZM347.286 284.301C347.763 284.022 347.923 283.41 347.645 282.933C347.366 282.456 346.754 282.295 346.277 282.574L346.781 283.437L347.286 284.301ZM339.215 286.699C338.738 286.977 338.577 287.59 338.855 288.067C339.134 288.544 339.746 288.704 340.223 288.426L339.719 287.562L339.215 286.699ZM333.161 292.551C333.638 292.272 333.798 291.66 333.52 291.183C333.241 290.706 332.629 290.545 332.152 290.824L332.656 291.687L333.161 292.551ZM325.09 294.949C324.613 295.227 324.452 295.84 324.73 296.317C325.009 296.794 325.621 296.954 326.098 296.676L325.594 295.812L325.09 294.949ZM319.036 300.801C319.513 300.522 319.673 299.91 319.395 299.433C319.116 298.956 318.504 298.795 318.027 299.074L318.531 299.937L319.036 300.801ZM310.965 303.199C310.488 303.477 310.327 304.09 310.605 304.567C310.884 305.044 311.496 305.204 311.973 304.926L311.469 304.062L310.965 303.199ZM304.911 309.051C305.388 308.772 305.549 308.16 305.27 307.683C304.991 307.206 304.379 307.045 303.902 307.324L304.406 308.187L304.911 309.051ZM296.84 311.449C296.363 311.727 296.202 312.34 296.48 312.817C296.759 313.294 297.371 313.454 297.848 313.176L297.344 312.312L296.84 311.449ZM290.786 317.301C291.263 317.022 291.424 316.41 291.145 315.933C290.866 315.456 290.254 315.295 289.777 315.574L290.282 316.437L290.786 317.301ZM282.715 319.699C282.238 319.977 282.077 320.59 282.356 321.067C282.634 321.544 283.246 321.704 283.723 321.426L283.219 320.562L282.715 319.699ZM276.661 325.551C277.138 325.272 277.299 324.66 277.02 324.183C276.741 323.706 276.129 323.545 275.652 323.824L276.157 324.687L276.661 325.551ZM268.59 327.949C268.113 328.227 267.952 328.84 268.231 329.317C268.509 329.794 269.121 329.954 269.598 329.676L269.094 328.812L268.59 327.949ZM262.536 333.801C263.013 333.522 263.174 332.91 262.895 332.433C262.617 331.956 262.004 331.795 261.527 332.074L262.032 332.937L262.536 333.801ZM254.465 336.199C253.988 336.477 253.827 337.09 254.106 337.567C254.384 338.044 254.997 338.204 255.473 337.926L254.969 337.062L254.465 336.199ZM248.411 342.051C248.888 341.772 249.049 341.16 248.77 340.683C248.492 340.206 247.879 340.045 247.402 340.324L247.907 341.187L248.411 342.051ZM240.34 344.449C239.863 344.727 239.702 345.34 239.981 345.817C240.259 346.294 240.872 346.454 241.348 346.176L240.844 345.312L240.34 344.449ZM234.286 350.301C234.763 350.022 234.924 349.41 234.645 348.933C234.367 348.456 233.754 348.295 233.277 348.574L233.782 349.437L234.286 350.301ZM226.215 352.699C225.738 352.977 225.577 353.59 225.856 354.067C226.134 354.544 226.747 354.704 227.223 354.426L226.719 353.562L226.215 352.699ZM220.161 358.551C220.638 358.272 220.799 357.66 220.52 357.183C220.242 356.706 219.629 356.545 219.152 356.824L219.657 357.687L220.161 358.551ZM212.09 360.949C211.613 361.227 211.452 361.84 211.731 362.317C212.009 362.794 212.622 362.954 213.098 362.676L212.594 361.812L212.09 360.949ZM206.036 366.801C206.513 366.522 206.674 365.91 206.395 365.433C206.117 364.956 205.504 364.795 205.027 365.074L205.532 365.937L206.036 366.801ZM197.965 369.199C197.488 369.477 197.327 370.09 197.606 370.567C197.884 371.044 198.497 371.204 198.973 370.926L198.469 370.062L197.965 369.199ZM191.911 375.051C192.388 374.772 192.549 374.16 192.27 373.683C191.992 373.206 191.379 373.045 190.902 373.324L191.407 374.187L191.911 375.051ZM183.84 377.449C183.363 377.727 183.202 378.34 183.481 378.817C183.759 379.293 184.372 379.454 184.849 379.176L184.344 378.312L183.84 377.449ZM177.786 383.301C178.263 383.022 178.424 382.41 178.145 381.933C177.867 381.456 177.254 381.295 176.777 381.574L177.282 382.437L177.786 383.301ZM169.715 385.699C169.238 385.977 169.077 386.59 169.356 387.067C169.634 387.543 170.247 387.704 170.724 387.426L170.219 386.562L169.715 385.699ZM163.661 391.551C164.138 391.272 164.299 390.66 164.02 390.183C163.742 389.706 163.129 389.545 162.652 389.824L163.157 390.687L163.661 391.551ZM155.59 393.949C155.113 394.227 154.952 394.84 155.231 395.317C155.509 395.793 156.122 395.954 156.599 395.676L156.094 394.812L155.59 393.949ZM149.536 399.801C150.013 399.522 150.174 398.91 149.895 398.433C149.617 397.956 149.004 397.795 148.527 398.074L149.032 398.937L149.536 399.801ZM141.465 402.199C140.988 402.477 140.827 403.09 141.106 403.567C141.384 404.043 141.997 404.204 142.474 403.926L141.969 403.062L141.465 402.199ZM135.411 408.051C135.888 407.772 136.049 407.16 135.77 406.683C135.492 406.206 134.879 406.045 134.402 406.324L134.907 407.187L135.411 408.051ZM127.34 410.449C126.863 410.727 126.702 411.34 126.981 411.817C127.259 412.293 127.872 412.454 128.349 412.176L127.844 411.312L127.34 410.449ZM121.286 416.301C121.763 416.022 121.924 415.41 121.645 414.933C121.367 414.456 120.754 414.295 120.277 414.574L120.782 415.437L121.286 416.301ZM113.215 418.699C112.738 418.977 112.577 419.59 112.856 420.067C113.134 420.543 113.747 420.704 114.224 420.426L113.719 419.562L113.215 418.699ZM107.161 424.551C107.638 424.272 107.799 423.66 107.52 423.183C107.242 422.706 106.629 422.545 106.152 422.824L106.657 423.687L107.161 424.551ZM99.09 426.949C98.6131 427.227 98.4523 427.84 98.7308 428.317C99.0094 428.793 99.6218 428.954 100.099 428.676L99.5943 427.812L99.09 426.949ZM93.0362 432.801C93.5131 432.522 93.6739 431.91 93.3953 431.433C93.1168 430.956 92.5044 430.795 92.0275 431.074L92.5318 431.937L93.0362 432.801ZM643.406 110.187L642.902 109.324L635.839 113.449L636.344 114.312L636.848 115.176L643.911 111.051L643.406 110.187ZM629.281 118.437L628.777 117.574L621.714 121.699L622.219 122.562L622.723 123.426L629.786 119.301L629.281 118.437ZM615.156 126.688L614.652 125.824L607.589 129.949L608.094 130.813L608.598 131.676L615.661 127.551L615.156 126.688ZM601.031 134.938L600.527 134.074L593.464 138.199L593.969 139.063L594.473 139.926L601.536 135.801L601.031 134.938ZM586.906 143.188L586.402 142.324L579.339 146.449L579.844 147.313L580.348 148.176L587.411 144.051L586.906 143.188ZM572.781 151.438L572.277 150.574L565.214 154.699L565.719 155.563L566.223 156.426L573.286 152.301L572.781 151.438ZM558.656 159.688L558.152 158.824L551.089 162.949L551.594 163.813L552.098 164.676L559.161 160.551L558.656 159.688ZM544.531 167.938L544.027 167.074L536.964 171.199L537.469 172.063L537.973 172.926L545.036 168.801L544.531 167.938ZM530.406 176.188L529.902 175.324L522.839 179.449L523.344 180.313L523.848 181.176L530.911 177.051L530.406 176.188ZM516.281 184.438L515.777 183.574L508.714 187.699L509.219 188.563L509.723 189.426L516.786 185.301L516.281 184.438ZM502.156 192.688L501.652 191.824L494.589 195.949L495.094 196.813L495.598 197.676L502.661 193.551L502.156 192.688ZM488.031 200.938L487.527 200.074L480.464 204.199L480.969 205.063L481.473 205.926L488.536 201.801L488.031 200.938ZM473.906 209.188L473.402 208.324L466.339 212.449L466.844 213.313L467.348 214.176L474.411 210.051L473.906 209.188ZM459.781 217.438L459.277 216.574L452.214 220.699L452.719 221.563L453.223 222.426L460.286 218.301L459.781 217.438ZM445.656 225.688L445.152 224.824L438.089 228.949L438.594 229.813L439.098 230.676L446.161 226.551L445.656 225.688ZM431.531 233.938L431.027 233.074L423.964 237.199L424.469 238.063L424.973 238.926L432.036 234.801L431.531 233.938ZM417.406 242.187L416.902 241.324L409.839 245.449L410.344 246.312L410.848 247.176L417.911 243.051L417.406 242.187ZM403.281 250.437L402.777 249.574L395.714 253.699L396.219 254.562L396.723 255.426L403.786 251.301L403.281 250.437ZM389.156 258.687L388.652 257.824L381.589 261.949L382.094 262.812L382.598 263.676L389.661 259.551L389.156 258.687ZM375.031 266.937L374.527 266.074L367.465 270.199L367.969 271.062L368.473 271.926L375.536 267.801L375.031 266.937ZM360.906 275.187L360.402 274.324L353.34 278.449L353.844 279.312L354.348 280.176L361.411 276.051L360.906 275.187ZM346.781 283.437L346.277 282.574L339.215 286.699L339.719 287.562L340.223 288.426L347.286 284.301L346.781 283.437ZM332.656 291.687L332.152 290.824L325.09 294.949L325.594 295.812L326.098 296.676L333.161 292.551L332.656 291.687ZM318.531 299.937L318.027 299.074L310.965 303.199L311.469 304.062L311.973 304.926L319.036 300.801L318.531 299.937ZM304.406 308.187L303.902 307.324L296.84 311.449L297.344 312.312L297.848 313.176L304.911 309.051L304.406 308.187ZM290.282 316.437L289.777 315.574L282.715 319.699L283.219 320.562L283.723 321.426L290.786 317.301L290.282 316.437ZM276.157 324.687L275.652 323.824L268.59 327.949L269.094 328.812L269.598 329.676L276.661 325.551L276.157 324.687ZM262.032 332.937L261.527 332.074L254.465 336.199L254.969 337.062L255.473 337.926L262.536 333.801L262.032 332.937ZM247.907 341.187L247.402 340.324L240.34 344.449L240.844 345.312L241.348 346.176L248.411 342.051L247.907 341.187ZM233.782 349.437L233.277 348.574L226.215 352.699L226.719 353.562L227.223 354.426L234.286 350.301L233.782 349.437ZM219.657 357.687L219.152 356.824L212.09 360.949L212.594 361.812L213.098 362.676L220.161 358.551L219.657 357.687ZM205.532 365.937L205.027 365.074L197.965 369.199L198.469 370.062L198.973 370.926L206.036 366.801L205.532 365.937ZM191.407 374.187L190.902 373.324L183.84 377.449L184.344 378.312L184.849 379.176L191.911 375.051L191.407 374.187ZM177.282 382.437L176.777 381.574L169.715 385.699L170.219 386.562L170.724 387.426L177.786 383.301L177.282 382.437ZM163.157 390.687L162.652 389.824L155.59 393.949L156.094 394.812L156.599 395.676L163.661 391.551L163.157 390.687ZM149.032 398.937L148.527 398.074L141.465 402.199L141.969 403.062L142.474 403.926L149.536 399.801L149.032 398.937ZM134.907 407.187L134.402 406.324L127.34 410.449L127.844 411.312L128.349 412.176L135.411 408.051L134.907 407.187ZM120.782 415.437L120.277 414.574L113.215 418.699L113.719 419.562L114.224 420.426L121.286 416.301L120.782 415.437ZM106.657 423.687L106.152 422.824L99.09 426.949L99.5943 427.812L100.099 428.676L107.161 424.551L106.657 423.687ZM92.5318 431.937L92.0275 431.074L88.4958 433.136L89.0001 434L89.5045 434.863L93.0362 432.801L92.5318 431.937Z" fill="white"/>
<rect x="219" y="317" width="106" height="24" rx="12" fill="white"/>
<path d="M228.453 334V323.536H231.253C232.853 323.536 234.101 323.968 234.997 324.832C235.893 325.696 236.341 326.992 236.341 328.72C236.341 330.459 235.898 331.776 235.013 332.672C234.128 333.557 232.906 334 231.349 334H228.453ZM230.309 332.496H231.125C232.181 332.496 232.997 332.192 233.573 331.584C234.149 330.965 234.437 330.011 234.437 328.72C234.437 327.44 234.149 326.507 233.573 325.92C232.997 325.333 232.181 325.04 231.125 325.04H230.309V332.496ZM241.441 334.192C240.715 334.192 240.059 334.032 239.473 333.712C238.886 333.381 238.422 332.912 238.081 332.304C237.739 331.685 237.569 330.944 237.569 330.08C237.569 329.227 237.739 328.491 238.081 327.872C238.433 327.253 238.886 326.779 239.441 326.448C239.995 326.117 240.577 325.952 241.185 325.952C241.899 325.952 242.497 326.112 242.977 326.432C243.457 326.741 243.819 327.179 244.065 327.744C244.31 328.299 244.433 328.944 244.433 329.68C244.433 330.064 244.406 330.363 244.353 330.576H239.361C239.446 331.269 239.697 331.808 240.113 332.192C240.529 332.576 241.051 332.768 241.681 332.768C242.022 332.768 242.337 332.72 242.625 332.624C242.923 332.517 243.217 332.373 243.505 332.192L244.129 333.344C243.755 333.589 243.339 333.792 242.881 333.952C242.422 334.112 241.942 334.192 241.441 334.192ZM239.345 329.328H242.833C242.833 328.72 242.699 328.245 242.433 327.904C242.166 327.552 241.766 327.376 241.233 327.376C240.774 327.376 240.363 327.547 240.001 327.888C239.649 328.219 239.43 328.699 239.345 329.328ZM248.17 334.192C247.637 334.192 247.103 334.091 246.57 333.888C246.037 333.675 245.578 333.413 245.194 333.104L246.058 331.92C246.41 332.187 246.762 332.4 247.114 332.56C247.466 332.72 247.839 332.8 248.234 332.8C248.661 332.8 248.975 332.709 249.178 332.528C249.381 332.347 249.482 332.123 249.482 331.856C249.482 331.632 249.397 331.451 249.226 331.312C249.066 331.163 248.858 331.035 248.602 330.928C248.346 330.811 248.079 330.699 247.802 330.592C247.461 330.464 247.119 330.309 246.778 330.128C246.447 329.936 246.175 329.696 245.962 329.408C245.749 329.109 245.642 328.741 245.642 328.304C245.642 327.611 245.898 327.045 246.41 326.608C246.922 326.171 247.615 325.952 248.49 325.952C249.045 325.952 249.541 326.048 249.978 326.24C250.415 326.432 250.794 326.651 251.114 326.896L250.266 328.016C249.989 327.813 249.706 327.653 249.418 327.536C249.141 327.408 248.847 327.344 248.538 327.344C248.143 327.344 247.85 327.429 247.658 327.6C247.466 327.76 247.37 327.963 247.37 328.208C247.37 328.517 247.53 328.752 247.85 328.912C248.17 329.072 248.543 329.227 248.97 329.376C249.333 329.504 249.685 329.664 250.026 329.856C250.367 330.037 250.65 330.277 250.874 330.576C251.109 330.875 251.226 331.269 251.226 331.76C251.226 332.432 250.965 333.008 250.442 333.488C249.919 333.957 249.162 334.192 248.17 334.192ZM252.656 334V326.144H254.496V334H252.656ZM253.584 324.768C253.254 324.768 252.987 324.672 252.784 324.48C252.582 324.288 252.48 324.032 252.48 323.712C252.48 323.403 252.582 323.152 252.784 322.96C252.987 322.768 253.254 322.672 253.584 322.672C253.915 322.672 254.182 322.768 254.384 322.96C254.587 323.152 254.688 323.403 254.688 323.712C254.688 324.032 254.587 324.288 254.384 324.48C254.182 324.672 253.915 324.768 253.584 324.768ZM259.368 337.472C258.749 337.472 258.189 337.397 257.688 337.248C257.197 337.099 256.808 336.869 256.52 336.56C256.242 336.261 256.104 335.883 256.104 335.424C256.104 334.773 256.477 334.213 257.224 333.744V333.68C257.021 333.552 256.85 333.381 256.712 333.168C256.584 332.955 256.52 332.688 256.52 332.368C256.52 332.059 256.605 331.781 256.776 331.536C256.957 331.28 257.16 331.072 257.384 330.912V330.848C257.117 330.645 256.877 330.363 256.664 330C256.461 329.637 256.36 329.227 256.36 328.768C256.36 328.16 256.504 327.648 256.792 327.232C257.08 326.816 257.458 326.501 257.928 326.288C258.408 326.064 258.92 325.952 259.464 325.952C259.677 325.952 259.88 325.973 260.072 326.016C260.274 326.048 260.456 326.091 260.616 326.144H263.432V327.504H261.992C262.12 327.653 262.226 327.845 262.312 328.08C262.397 328.304 262.44 328.555 262.44 328.832C262.44 329.408 262.306 329.899 262.04 330.304C261.773 330.699 261.416 330.997 260.968 331.2C260.52 331.403 260.018 331.504 259.464 331.504C259.293 331.504 259.117 331.488 258.936 331.456C258.754 331.424 258.573 331.371 258.392 331.296C258.274 331.403 258.178 331.509 258.104 331.616C258.04 331.723 258.008 331.867 258.008 332.048C258.008 332.272 258.098 332.448 258.28 332.576C258.472 332.704 258.808 332.768 259.288 332.768H260.68C261.629 332.768 262.344 332.923 262.824 333.232C263.314 333.531 263.56 334.021 263.56 334.704C263.56 335.216 263.389 335.68 263.048 336.096C262.706 336.523 262.221 336.859 261.592 337.104C260.962 337.349 260.221 337.472 259.368 337.472ZM259.464 330.352C259.837 330.352 260.157 330.213 260.424 329.936C260.69 329.659 260.824 329.269 260.824 328.768C260.824 328.277 260.69 327.899 260.424 327.632C260.168 327.355 259.848 327.216 259.464 327.216C259.08 327.216 258.754 327.349 258.488 327.616C258.221 327.883 258.088 328.267 258.088 328.768C258.088 329.269 258.221 329.659 258.488 329.936C258.754 330.213 259.08 330.352 259.464 330.352ZM259.656 336.272C260.285 336.272 260.797 336.144 261.192 335.888C261.586 335.632 261.784 335.339 261.784 335.008C261.784 334.699 261.661 334.491 261.416 334.384C261.181 334.277 260.84 334.224 260.392 334.224H259.32C258.893 334.224 258.536 334.187 258.248 334.112C257.842 334.421 257.64 334.768 257.64 335.152C257.64 335.504 257.821 335.776 258.184 335.968C258.546 336.171 259.037 336.272 259.656 336.272ZM264.732 334V326.144H266.252L266.38 327.2H266.444C266.796 326.859 267.18 326.565 267.596 326.32C268.012 326.075 268.486 325.952 269.02 325.952C269.862 325.952 270.476 326.224 270.86 326.768C271.244 327.312 271.436 328.08 271.436 329.072V334H269.596V329.312C269.596 328.661 269.5 328.203 269.308 327.936C269.116 327.669 268.801 327.536 268.364 327.536C268.022 327.536 267.718 327.621 267.452 327.792C267.196 327.952 266.902 328.192 266.572 328.512V334H264.732ZM279.68 334.192C278.976 334.192 278.293 334.059 277.632 333.792C276.981 333.525 276.405 333.147 275.904 332.656L276.992 331.392C277.365 331.744 277.792 332.032 278.272 332.256C278.752 332.469 279.232 332.576 279.712 332.576C280.309 332.576 280.762 332.453 281.072 332.208C281.381 331.963 281.536 331.637 281.536 331.232C281.536 330.795 281.381 330.48 281.072 330.288C280.773 330.096 280.389 329.899 279.92 329.696L278.48 329.072C278.138 328.923 277.802 328.731 277.472 328.496C277.152 328.261 276.885 327.963 276.672 327.6C276.469 327.237 276.368 326.8 276.368 326.288C276.368 325.733 276.517 325.237 276.816 324.8C277.125 324.352 277.541 324 278.064 323.744C278.597 323.477 279.205 323.344 279.888 323.344C280.496 323.344 281.082 323.467 281.648 323.712C282.213 323.947 282.698 324.267 283.104 324.672L282.16 325.856C281.829 325.579 281.477 325.36 281.104 325.2C280.741 325.04 280.336 324.96 279.888 324.96C279.397 324.96 278.997 325.072 278.688 325.296C278.389 325.509 278.24 325.808 278.24 326.192C278.24 326.459 278.314 326.683 278.464 326.864C278.624 327.035 278.832 327.184 279.088 327.312C279.344 327.429 279.616 327.547 279.904 327.664L281.328 328.256C281.946 328.523 282.453 328.875 282.848 329.312C283.242 329.739 283.44 330.331 283.44 331.088C283.44 331.653 283.29 332.171 282.992 332.64C282.693 333.109 282.261 333.488 281.696 333.776C281.141 334.053 280.469 334.192 279.68 334.192ZM284.97 337.104V326.144H286.49L286.618 326.976H286.682C287.013 326.699 287.381 326.459 287.786 326.256C288.202 326.053 288.623 325.952 289.05 325.952C290.031 325.952 290.789 326.315 291.322 327.04C291.866 327.765 292.138 328.736 292.138 329.952C292.138 330.848 291.978 331.616 291.658 332.256C291.338 332.885 290.922 333.365 290.41 333.696C289.909 334.027 289.365 334.192 288.778 334.192C288.437 334.192 288.095 334.117 287.754 333.968C287.413 333.808 287.082 333.595 286.762 333.328L286.81 334.64V337.104H284.97ZM288.394 332.672C288.917 332.672 289.354 332.443 289.706 331.984C290.058 331.525 290.234 330.853 290.234 329.968C290.234 329.179 290.101 328.565 289.834 328.128C289.567 327.691 289.135 327.472 288.538 327.472C287.983 327.472 287.407 327.765 286.81 328.352V332.016C287.098 332.251 287.375 332.421 287.642 332.528C287.909 332.624 288.159 332.672 288.394 332.672ZM293.789 334V326.144H295.309L295.437 327.536H295.501C295.778 327.024 296.114 326.635 296.509 326.368C296.904 326.091 297.309 325.952 297.725 325.952C298.098 325.952 298.397 326.005 298.621 326.112L298.301 327.712C298.162 327.669 298.034 327.637 297.917 327.616C297.8 327.595 297.656 327.584 297.485 327.584C297.176 327.584 296.85 327.707 296.509 327.952C296.168 328.187 295.874 328.603 295.629 329.2V334H293.789ZM299.546 334V326.144H301.386V334H299.546ZM300.474 324.768C300.143 324.768 299.876 324.672 299.674 324.48C299.471 324.288 299.37 324.032 299.37 323.712C299.37 323.403 299.471 323.152 299.674 322.96C299.876 322.768 300.143 322.672 300.474 322.672C300.804 322.672 301.071 322.768 301.274 322.96C301.476 323.152 301.578 323.403 301.578 323.712C301.578 324.032 301.476 324.288 301.274 324.48C301.071 324.672 300.804 324.768 300.474 324.768ZM303.521 334V326.144H305.041L305.169 327.2H305.233C305.585 326.859 305.969 326.565 306.385 326.32C306.801 326.075 307.276 325.952 307.809 325.952C308.652 325.952 309.265 326.224 309.649 326.768C310.033 327.312 310.225 328.08 310.225 329.072V334H308.385V329.312C308.385 328.661 308.289 328.203 308.097 327.936C307.905 327.669 307.59 327.536 307.153 327.536C306.812 327.536 306.508 327.621 306.241 327.792C305.985 327.952 305.692 328.192 305.361 328.512V334H303.521ZM315.03 334.192C314.123 334.192 313.478 333.931 313.094 333.408C312.72 332.875 312.534 332.187 312.534 331.344V327.6H311.414V326.224L312.63 326.144L312.854 324H314.39V326.144H316.39V327.6H314.39V331.344C314.39 332.261 314.758 332.72 315.494 332.72C315.632 332.72 315.776 332.704 315.926 332.672C316.075 332.629 316.203 332.587 316.31 332.544L316.63 333.904C316.416 333.979 316.171 334.043 315.894 334.096C315.627 334.16 315.339 334.192 315.03 334.192Z" fill="#2E3D49"/>
<rect x="483" y="151" width="128" height="24" rx="12" fill="white"/>
<path d="M492.676 168V157.536H495.476C497.076 157.536 498.324 157.968 499.22 158.832C500.116 159.696 500.564 160.992 500.564 162.72C500.564 164.459 500.122 165.776 499.236 166.672C498.351 167.557 497.13 168 495.572 168H492.676ZM494.532 166.496H495.348C496.404 166.496 497.22 166.192 497.796 165.584C498.372 164.965 498.66 164.011 498.66 162.72C498.66 161.44 498.372 160.507 497.796 159.92C497.22 159.333 496.404 159.04 495.348 159.04H494.532V166.496ZM505.52 168.192C504.869 168.192 504.261 168.032 503.696 167.712C503.131 167.381 502.672 166.912 502.32 166.304C501.968 165.685 501.792 164.944 501.792 164.08C501.792 163.205 501.968 162.464 502.32 161.856C502.672 161.237 503.131 160.768 503.696 160.448C504.261 160.117 504.869 159.952 505.52 159.952C506.181 159.952 506.795 160.117 507.36 160.448C507.925 160.768 508.384 161.237 508.736 161.856C509.088 162.464 509.264 163.205 509.264 164.08C509.264 164.944 509.088 165.685 508.736 166.304C508.384 166.912 507.925 167.381 507.36 167.712C506.795 168.032 506.181 168.192 505.52 168.192ZM505.52 166.688C506.096 166.688 506.549 166.448 506.88 165.968C507.211 165.488 507.376 164.859 507.376 164.08C507.376 163.291 507.211 162.656 506.88 162.176C506.549 161.696 506.096 161.456 505.52 161.456C504.944 161.456 504.491 161.696 504.16 162.176C503.84 162.656 503.68 163.291 503.68 164.08C503.68 164.859 503.84 165.488 504.16 165.968C504.491 166.448 504.944 166.688 505.52 166.688ZM513.209 168.192C512.366 168.192 511.753 167.92 511.369 167.376C510.985 166.832 510.793 166.064 510.793 165.072V160.144H512.633V164.832C512.633 165.483 512.729 165.941 512.921 166.208C513.113 166.475 513.422 166.608 513.849 166.608C514.19 166.608 514.489 166.523 514.745 166.352C515.012 166.181 515.294 165.904 515.593 165.52V160.144H517.433V168H515.929L515.785 166.848H515.737C515.396 167.253 515.022 167.579 514.617 167.824C514.212 168.069 513.742 168.192 513.209 168.192ZM523.359 168.192C522.613 168.192 521.898 167.851 521.215 167.168H521.167L521.007 168H519.551V156.704H521.391V159.616L521.343 160.928C521.674 160.64 522.037 160.405 522.431 160.224C522.826 160.043 523.221 159.952 523.615 159.952C524.597 159.952 525.359 160.315 525.903 161.04C526.447 161.765 526.719 162.731 526.719 163.936C526.719 164.832 526.559 165.6 526.239 166.24C525.919 166.869 525.503 167.355 524.991 167.696C524.49 168.027 523.946 168.192 523.359 168.192ZM522.975 166.672C523.498 166.672 523.935 166.443 524.287 165.984C524.639 165.525 524.815 164.853 524.815 163.968C524.815 163.179 524.682 162.565 524.415 162.128C524.149 161.691 523.717 161.472 523.119 161.472C522.565 161.472 521.989 161.765 521.391 162.352V166.016C521.669 166.251 521.941 166.421 522.207 166.528C522.485 166.624 522.741 166.672 522.975 166.672ZM530.147 168.192C529.496 168.192 529.032 167.995 528.755 167.6C528.488 167.205 528.355 166.667 528.355 165.984V156.704H530.195V166.08C530.195 166.304 530.237 166.464 530.323 166.56C530.408 166.645 530.499 166.688 530.595 166.688C530.637 166.688 530.675 166.688 530.707 166.688C530.749 166.677 530.808 166.667 530.883 166.656L531.123 168.032C531.016 168.075 530.877 168.112 530.707 168.144C530.547 168.176 530.36 168.192 530.147 168.192ZM535.846 168.192C535.121 168.192 534.465 168.032 533.878 167.712C533.292 167.381 532.828 166.912 532.486 166.304C532.145 165.685 531.974 164.944 531.974 164.08C531.974 163.227 532.145 162.491 532.486 161.872C532.838 161.253 533.292 160.779 533.846 160.448C534.401 160.117 534.982 159.952 535.59 159.952C536.305 159.952 536.902 160.112 537.382 160.432C537.862 160.741 538.225 161.179 538.47 161.744C538.716 162.299 538.838 162.944 538.838 163.68C538.838 164.064 538.812 164.363 538.758 164.576H533.766C533.852 165.269 534.102 165.808 534.518 166.192C534.934 166.576 535.457 166.768 536.086 166.768C536.428 166.768 536.742 166.72 537.03 166.624C537.329 166.517 537.622 166.373 537.91 166.192L538.534 167.344C538.161 167.589 537.745 167.792 537.286 167.952C536.828 168.112 536.348 168.192 535.846 168.192ZM533.75 163.328H537.238C537.238 162.72 537.105 162.245 536.838 161.904C536.572 161.552 536.172 161.376 535.638 161.376C535.18 161.376 534.769 161.547 534.406 161.888C534.054 162.219 533.836 162.699 533.75 163.328ZM546.126 168.192C545.145 168.192 544.361 167.829 543.774 167.104C543.188 166.379 542.894 165.371 542.894 164.08C542.894 163.227 543.049 162.491 543.358 161.872C543.678 161.253 544.094 160.779 544.606 160.448C545.118 160.117 545.657 159.952 546.222 159.952C546.67 159.952 547.049 160.032 547.358 160.192C547.678 160.341 547.988 160.549 548.286 160.816L548.222 159.552V156.704H550.062V168H548.542L548.414 167.152H548.35C548.062 167.44 547.726 167.685 547.342 167.888C546.958 168.091 546.553 168.192 546.126 168.192ZM546.574 166.672C547.161 166.672 547.71 166.379 548.222 165.792V162.128C547.956 161.883 547.689 161.712 547.422 161.616C547.156 161.52 546.889 161.472 546.622 161.472C546.121 161.472 545.689 161.701 545.326 162.16C544.974 162.608 544.798 163.243 544.798 164.064C544.798 164.907 544.953 165.552 545.262 166C545.572 166.448 546.009 166.672 546.574 166.672ZM552.193 168V160.144H554.033V168H552.193ZM553.121 158.768C552.791 158.768 552.524 158.672 552.321 158.48C552.119 158.288 552.017 158.032 552.017 157.712C552.017 157.403 552.119 157.152 552.321 156.96C552.524 156.768 552.791 156.672 553.121 156.672C553.452 156.672 553.719 156.768 553.921 156.96C554.124 157.152 554.225 157.403 554.225 157.712C554.225 158.032 554.124 158.288 553.921 158.48C553.719 158.672 553.452 158.768 553.121 158.768ZM558.073 168.192C557.39 168.192 556.83 167.979 556.393 167.552C555.966 167.125 555.753 166.571 555.753 165.888C555.753 165.045 556.121 164.395 556.857 163.936C557.593 163.467 558.766 163.147 560.377 162.976C560.366 162.56 560.254 162.203 560.041 161.904C559.838 161.595 559.47 161.44 558.937 161.44C558.553 161.44 558.174 161.515 557.801 161.664C557.438 161.813 557.081 161.995 556.729 162.208L556.057 160.976C556.494 160.699 556.985 160.459 557.529 160.256C558.083 160.053 558.67 159.952 559.289 159.952C560.27 159.952 561.001 160.245 561.481 160.832C561.971 161.408 562.217 162.245 562.217 163.344V168H560.697L560.569 167.136H560.505C560.153 167.435 559.774 167.685 559.369 167.888C558.974 168.091 558.542 168.192 558.073 168.192ZM558.665 166.752C558.985 166.752 559.273 166.677 559.529 166.528C559.795 166.368 560.078 166.155 560.377 165.888V164.128C559.31 164.267 558.569 164.475 558.153 164.752C557.737 165.019 557.529 165.349 557.529 165.744C557.529 166.096 557.635 166.352 557.849 166.512C558.062 166.672 558.334 166.752 558.665 166.752ZM564.206 168V160.144H565.726L565.854 161.216H565.918C566.249 160.864 566.606 160.565 566.99 160.32C567.385 160.075 567.828 159.952 568.318 159.952C568.894 159.952 569.353 160.08 569.694 160.336C570.046 160.581 570.313 160.923 570.494 161.36C570.868 160.955 571.257 160.619 571.662 160.352C572.078 160.085 572.532 159.952 573.022 159.952C573.854 159.952 574.468 160.224 574.862 160.768C575.257 161.312 575.454 162.08 575.454 163.072V168H573.598V163.312C573.598 162.661 573.497 162.203 573.294 161.936C573.102 161.669 572.804 161.536 572.398 161.536C571.908 161.536 571.358 161.861 570.75 162.512V168H568.91V163.312C568.91 162.661 568.809 162.203 568.606 161.936C568.414 161.669 568.11 161.536 567.694 161.536C567.204 161.536 566.654 161.861 566.046 162.512V168H564.206ZM580.695 168.192C580.044 168.192 579.436 168.032 578.871 167.712C578.305 167.381 577.847 166.912 577.495 166.304C577.143 165.685 576.967 164.944 576.967 164.08C576.967 163.205 577.143 162.464 577.495 161.856C577.847 161.237 578.305 160.768 578.871 160.448C579.436 160.117 580.044 159.952 580.695 159.952C581.356 159.952 581.969 160.117 582.535 160.448C583.1 160.768 583.559 161.237 583.911 161.856C584.263 162.464 584.439 163.205 584.439 164.08C584.439 164.944 584.263 165.685 583.911 166.304C583.559 166.912 583.1 167.381 582.535 167.712C581.969 168.032 581.356 168.192 580.695 168.192ZM580.695 166.688C581.271 166.688 581.724 166.448 582.055 165.968C582.385 165.488 582.551 164.859 582.551 164.08C582.551 163.291 582.385 162.656 582.055 162.176C581.724 161.696 581.271 161.456 580.695 161.456C580.119 161.456 579.665 161.696 579.335 162.176C579.015 162.656 578.855 163.291 578.855 164.08C578.855 164.859 579.015 165.488 579.335 165.968C579.665 166.448 580.119 166.688 580.695 166.688ZM586.048 168V160.144H587.568L587.696 161.2H587.76C588.112 160.859 588.496 160.565 588.912 160.32C589.328 160.075 589.802 159.952 590.336 159.952C591.178 159.952 591.792 160.224 592.176 160.768C592.56 161.312 592.752 162.08 592.752 163.072V168H590.912V163.312C590.912 162.661 590.816 162.203 590.624 161.936C590.432 161.669 590.117 161.536 589.68 161.536C589.338 161.536 589.034 161.621 588.768 161.792C588.512 161.952 588.218 162.192 587.888 162.512V168H586.048ZM597.541 168.192C596.559 168.192 595.775 167.829 595.189 167.104C594.602 166.379 594.309 165.371 594.309 164.08C594.309 163.227 594.463 162.491 594.773 161.872C595.093 161.253 595.509 160.779 596.021 160.448C596.533 160.117 597.071 159.952 597.637 159.952C598.085 159.952 598.463 160.032 598.773 160.192C599.093 160.341 599.402 160.549 599.701 160.816L599.637 159.552V156.704H601.477V168H599.957L599.829 167.152H599.765C599.477 167.44 599.141 167.685 598.757 167.888C598.373 168.091 597.967 168.192 597.541 168.192ZM597.989 166.672C598.575 166.672 599.125 166.379 599.637 165.792V162.128C599.37 161.883 599.103 161.712 598.837 161.616C598.57 161.52 598.303 161.472 598.037 161.472C597.535 161.472 597.103 161.701 596.741 162.16C596.389 162.608 596.213 163.243 596.213 164.064C596.213 164.907 596.367 165.552 596.677 166C596.986 166.448 597.423 166.672 597.989 166.672Z" fill="#2E3D49"/>
<rect x="398" y="206" width="121" height="24" rx="12" fill="white"/>
<path d="M407.657 223V212.536H410.457C412.057 212.536 413.305 212.968 414.201 213.832C415.097 214.696 415.545 215.992 415.545 217.72C415.545 219.459 415.103 220.776 414.217 221.672C413.332 222.557 412.111 223 410.553 223H407.657ZM409.513 221.496H410.329C411.385 221.496 412.201 221.192 412.777 220.584C413.353 219.965 413.641 219.011 413.641 217.72C413.641 216.44 413.353 215.507 412.777 214.92C412.201 214.333 411.385 214.04 410.329 214.04H409.513V221.496ZM420.645 223.192C419.92 223.192 419.264 223.032 418.677 222.712C418.09 222.381 417.626 221.912 417.285 221.304C416.944 220.685 416.773 219.944 416.773 219.08C416.773 218.227 416.944 217.491 417.285 216.872C417.637 216.253 418.09 215.779 418.645 215.448C419.2 215.117 419.781 214.952 420.389 214.952C421.104 214.952 421.701 215.112 422.181 215.432C422.661 215.741 423.024 216.179 423.269 216.744C423.514 217.299 423.637 217.944 423.637 218.68C423.637 219.064 423.61 219.363 423.557 219.576H418.565C418.65 220.269 418.901 220.808 419.317 221.192C419.733 221.576 420.256 221.768 420.885 221.768C421.226 221.768 421.541 221.72 421.829 221.624C422.128 221.517 422.421 221.373 422.709 221.192L423.333 222.344C422.96 222.589 422.544 222.792 422.085 222.952C421.626 223.112 421.146 223.192 420.645 223.192ZM418.549 218.328H422.037C422.037 217.72 421.904 217.245 421.637 216.904C421.37 216.552 420.97 216.376 420.437 216.376C419.978 216.376 419.568 216.547 419.205 216.888C418.853 217.219 418.634 217.699 418.549 218.328ZM427.374 223.192C426.841 223.192 426.308 223.091 425.774 222.888C425.241 222.675 424.782 222.413 424.398 222.104L425.262 220.92C425.614 221.187 425.966 221.4 426.318 221.56C426.67 221.72 427.044 221.8 427.438 221.8C427.865 221.8 428.18 221.709 428.382 221.528C428.585 221.347 428.686 221.123 428.686 220.856C428.686 220.632 428.601 220.451 428.43 220.312C428.27 220.163 428.062 220.035 427.806 219.928C427.55 219.811 427.284 219.699 427.006 219.592C426.665 219.464 426.324 219.309 425.982 219.128C425.652 218.936 425.38 218.696 425.166 218.408C424.953 218.109 424.846 217.741 424.846 217.304C424.846 216.611 425.102 216.045 425.614 215.608C426.126 215.171 426.82 214.952 427.694 214.952C428.249 214.952 428.745 215.048 429.182 215.24C429.62 215.432 429.998 215.651 430.318 215.896L429.47 217.016C429.193 216.813 428.91 216.653 428.622 216.536C428.345 216.408 428.052 216.344 427.742 216.344C427.348 216.344 427.054 216.429 426.862 216.6C426.67 216.76 426.574 216.963 426.574 217.208C426.574 217.517 426.734 217.752 427.054 217.912C427.374 218.072 427.748 218.227 428.174 218.376C428.537 218.504 428.889 218.664 429.23 218.856C429.572 219.037 429.854 219.277 430.078 219.576C430.313 219.875 430.43 220.269 430.43 220.76C430.43 221.432 430.169 222.008 429.646 222.488C429.124 222.957 428.366 223.192 427.374 223.192ZM431.861 223V215.144H433.701V223H431.861ZM432.789 213.768C432.458 213.768 432.191 213.672 431.989 213.48C431.786 213.288 431.685 213.032 431.685 212.712C431.685 212.403 431.786 212.152 431.989 211.96C432.191 211.768 432.458 211.672 432.789 211.672C433.119 211.672 433.386 211.768 433.589 211.96C433.791 212.152 433.893 212.403 433.893 212.712C433.893 213.032 433.791 213.288 433.589 213.48C433.386 213.672 433.119 213.768 432.789 213.768ZM438.572 226.472C437.953 226.472 437.393 226.397 436.892 226.248C436.401 226.099 436.012 225.869 435.724 225.56C435.447 225.261 435.308 224.883 435.308 224.424C435.308 223.773 435.681 223.213 436.428 222.744V222.68C436.225 222.552 436.055 222.381 435.916 222.168C435.788 221.955 435.724 221.688 435.724 221.368C435.724 221.059 435.809 220.781 435.98 220.536C436.161 220.28 436.364 220.072 436.588 219.912V219.848C436.321 219.645 436.081 219.363 435.868 219C435.665 218.637 435.564 218.227 435.564 217.768C435.564 217.16 435.708 216.648 435.996 216.232C436.284 215.816 436.663 215.501 437.132 215.288C437.612 215.064 438.124 214.952 438.668 214.952C438.881 214.952 439.084 214.973 439.276 215.016C439.479 215.048 439.66 215.091 439.82 215.144H442.636V216.504H441.196C441.324 216.653 441.431 216.845 441.516 217.08C441.601 217.304 441.644 217.555 441.644 217.832C441.644 218.408 441.511 218.899 441.244 219.304C440.977 219.699 440.62 219.997 440.172 220.2C439.724 220.403 439.223 220.504 438.668 220.504C438.497 220.504 438.321 220.488 438.14 220.456C437.959 220.424 437.777 220.371 437.596 220.296C437.479 220.403 437.383 220.509 437.308 220.616C437.244 220.723 437.212 220.867 437.212 221.048C437.212 221.272 437.303 221.448 437.484 221.576C437.676 221.704 438.012 221.768 438.492 221.768H439.884C440.833 221.768 441.548 221.923 442.028 222.232C442.519 222.531 442.764 223.021 442.764 223.704C442.764 224.216 442.593 224.68 442.252 225.096C441.911 225.523 441.425 225.859 440.796 226.104C440.167 226.349 439.425 226.472 438.572 226.472ZM438.668 219.352C439.041 219.352 439.361 219.213 439.628 218.936C439.895 218.659 440.028 218.269 440.028 217.768C440.028 217.277 439.895 216.899 439.628 216.632C439.372 216.355 439.052 216.216 438.668 216.216C438.284 216.216 437.959 216.349 437.692 216.616C437.425 216.883 437.292 217.267 437.292 217.768C437.292 218.269 437.425 218.659 437.692 218.936C437.959 219.213 438.284 219.352 438.668 219.352ZM438.86 225.272C439.489 225.272 440.001 225.144 440.396 224.888C440.791 224.632 440.988 224.339 440.988 224.008C440.988 223.699 440.865 223.491 440.62 223.384C440.385 223.277 440.044 223.224 439.596 223.224H438.524C438.097 223.224 437.74 223.187 437.452 223.112C437.047 223.421 436.844 223.768 436.844 224.152C436.844 224.504 437.025 224.776 437.388 224.968C437.751 225.171 438.241 225.272 438.86 225.272ZM443.936 223V215.144H445.456L445.584 216.2H445.648C446 215.859 446.384 215.565 446.8 215.32C447.216 215.075 447.691 214.952 448.224 214.952C449.067 214.952 449.68 215.224 450.064 215.768C450.448 216.312 450.64 217.08 450.64 218.072V223H448.8V218.312C448.8 217.661 448.704 217.203 448.512 216.936C448.32 216.669 448.006 216.536 447.568 216.536C447.227 216.536 446.923 216.621 446.656 216.792C446.4 216.952 446.107 217.192 445.776 217.512V223H443.936ZM458.436 223.192C457.529 223.192 456.884 222.931 456.5 222.408C456.127 221.875 455.94 221.187 455.94 220.344V216.6H454.82V215.224L456.036 215.144L456.26 213H457.796V215.144H459.796V216.6H457.796V220.344C457.796 221.261 458.164 221.72 458.9 221.72C459.039 221.72 459.183 221.704 459.332 221.672C459.481 221.629 459.609 221.587 459.716 221.544L460.036 222.904C459.823 222.979 459.577 223.043 459.3 223.096C459.033 223.16 458.745 223.192 458.436 223.192ZM461.237 223V211.704H463.077V214.616L463.013 216.136C463.344 215.827 463.712 215.555 464.117 215.32C464.522 215.075 464.992 214.952 465.525 214.952C466.368 214.952 466.981 215.224 467.365 215.768C467.749 216.312 467.941 217.08 467.941 218.072V223H466.101V218.312C466.101 217.661 466.005 217.203 465.813 216.936C465.621 216.669 465.306 216.536 464.869 216.536C464.528 216.536 464.224 216.621 463.957 216.792C463.701 216.952 463.408 217.192 463.077 217.512V223H461.237ZM469.947 223V215.144H471.787V223H469.947ZM470.875 213.768C470.544 213.768 470.277 213.672 470.075 213.48C469.872 213.288 469.771 213.032 469.771 212.712C469.771 212.403 469.872 212.152 470.075 211.96C470.277 211.768 470.544 211.672 470.875 211.672C471.205 211.672 471.472 211.768 471.675 211.96C471.877 212.152 471.979 212.403 471.979 212.712C471.979 213.032 471.877 213.288 471.675 213.48C471.472 213.672 471.205 213.768 470.875 213.768ZM473.922 223V215.144H475.442L475.57 216.2H475.634C475.986 215.859 476.37 215.565 476.786 215.32C477.202 215.075 477.677 214.952 478.21 214.952C479.053 214.952 479.666 215.224 480.05 215.768C480.434 216.312 480.626 217.08 480.626 218.072V223H478.786V218.312C478.786 217.661 478.69 217.203 478.498 216.936C478.306 216.669 477.991 216.536 477.554 216.536C477.213 216.536 476.909 216.621 476.642 216.792C476.386 216.952 476.093 217.192 475.762 217.512V223H473.922ZM482.663 223V211.704H484.471V218.76H484.519L487.431 215.144H489.447L486.759 218.344L489.719 223H487.719L485.703 219.592L484.471 221V223H482.663ZM490.81 223V215.144H492.65V223H490.81ZM491.738 213.768C491.407 213.768 491.141 213.672 490.938 213.48C490.735 213.288 490.634 213.032 490.634 212.712C490.634 212.403 490.735 212.152 490.938 211.96C491.141 211.768 491.407 211.672 491.738 211.672C492.069 211.672 492.335 211.768 492.538 211.96C492.741 212.152 492.842 212.403 492.842 212.712C492.842 213.032 492.741 213.288 492.538 213.48C492.335 213.672 492.069 213.768 491.738 213.768ZM494.785 223V215.144H496.305L496.433 216.2H496.497C496.849 215.859 497.233 215.565 497.649 215.32C498.065 215.075 498.54 214.952 499.073 214.952C499.916 214.952 500.529 215.224 500.913 215.768C501.297 216.312 501.489 217.08 501.489 218.072V223H499.649V218.312C499.649 217.661 499.553 217.203 499.361 216.936C499.169 216.669 498.855 216.536 498.417 216.536C498.076 216.536 497.772 216.621 497.505 216.792C497.249 216.952 496.956 217.192 496.625 217.512V223H494.785ZM506.262 226.472C505.643 226.472 505.083 226.397 504.582 226.248C504.091 226.099 503.702 225.869 503.414 225.56C503.137 225.261 502.998 224.883 502.998 224.424C502.998 223.773 503.371 223.213 504.118 222.744V222.68C503.915 222.552 503.745 222.381 503.606 222.168C503.478 221.955 503.414 221.688 503.414 221.368C503.414 221.059 503.499 220.781 503.67 220.536C503.851 220.28 504.054 220.072 504.278 219.912V219.848C504.011 219.645 503.771 219.363 503.558 219C503.355 218.637 503.254 218.227 503.254 217.768C503.254 217.16 503.398 216.648 503.686 216.232C503.974 215.816 504.353 215.501 504.822 215.288C505.302 215.064 505.814 214.952 506.358 214.952C506.571 214.952 506.774 214.973 506.966 215.016C507.169 215.048 507.35 215.091 507.51 215.144H510.326V216.504H508.886C509.014 216.653 509.121 216.845 509.206 217.08C509.291 217.304 509.334 217.555 509.334 217.832C509.334 218.408 509.201 218.899 508.934 219.304C508.667 219.699 508.31 219.997 507.862 220.2C507.414 220.403 506.913 220.504 506.358 220.504C506.187 220.504 506.011 220.488 505.83 220.456C505.649 220.424 505.467 220.371 505.286 220.296C505.169 220.403 505.073 220.509 504.998 220.616C504.934 220.723 504.902 220.867 504.902 221.048C504.902 221.272 504.993 221.448 505.174 221.576C505.366 221.704 505.702 221.768 506.182 221.768H507.574C508.523 221.768 509.238 221.923 509.718 222.232C510.209 222.531 510.454 223.021 510.454 223.704C510.454 224.216 510.283 224.68 509.942 225.096C509.601 225.523 509.115 225.859 508.486 226.104C507.857 226.349 507.115 226.472 506.262 226.472ZM506.358 219.352C506.731 219.352 507.051 219.213 507.318 218.936C507.585 218.659 507.718 218.269 507.718 217.768C507.718 217.277 507.585 216.899 507.318 216.632C507.062 216.355 506.742 216.216 506.358 216.216C505.974 216.216 505.649 216.349 505.382 216.616C505.115 216.883 504.982 217.267 504.982 217.768C504.982 218.269 505.115 218.659 505.382 218.936C505.649 219.213 505.974 219.352 506.358 219.352ZM506.55 225.272C507.179 225.272 507.691 225.144 508.086 224.888C508.481 224.632 508.678 224.339 508.678 224.008C508.678 223.699 508.555 223.491 508.31 223.384C508.075 223.277 507.734 223.224 507.286 223.224H506.214C505.787 223.224 505.43 223.187 505.142 223.112C504.737 223.421 504.534 223.768 504.534 224.152C504.534 224.504 504.715 224.776 505.078 224.968C505.441 225.171 505.931 225.272 506.55 225.272Z" fill="#2E3D49"/>
<rect x="234" y="391" width="90" height="24" rx="12" fill="white"/>
<path d="M243.732 408V397.536H245.588V401.744H249.828V397.536H251.684V408H249.828V403.36H245.588V408H243.732ZM255.873 408.192C255.19 408.192 254.63 407.979 254.193 407.552C253.766 407.125 253.553 406.571 253.553 405.888C253.553 405.045 253.921 404.395 254.657 403.936C255.393 403.467 256.566 403.147 258.177 402.976C258.166 402.56 258.054 402.203 257.841 401.904C257.638 401.595 257.27 401.44 256.737 401.44C256.353 401.44 255.974 401.515 255.601 401.664C255.238 401.813 254.881 401.995 254.529 402.208L253.857 400.976C254.294 400.699 254.785 400.459 255.329 400.256C255.883 400.053 256.47 399.952 257.089 399.952C258.07 399.952 258.801 400.245 259.281 400.832C259.771 401.408 260.017 402.245 260.017 403.344V408H258.497L258.369 407.136H258.305C257.953 407.435 257.574 407.685 257.169 407.888C256.774 408.091 256.342 408.192 255.873 408.192ZM256.465 406.752C256.785 406.752 257.073 406.677 257.329 406.528C257.595 406.368 257.878 406.155 258.177 405.888V404.128C257.11 404.267 256.369 404.475 255.953 404.752C255.537 405.019 255.329 405.349 255.329 405.744C255.329 406.096 255.435 406.352 255.649 406.512C255.862 406.672 256.134 406.752 256.465 406.752ZM265.287 408.192C264.572 408.192 263.927 408.032 263.351 407.712C262.785 407.381 262.332 406.912 261.991 406.304C261.66 405.685 261.495 404.944 261.495 404.08C261.495 403.205 261.676 402.464 262.039 401.856C262.401 401.237 262.881 400.768 263.479 400.448C264.087 400.117 264.737 399.952 265.431 399.952C265.932 399.952 266.369 400.037 266.743 400.208C267.116 400.379 267.447 400.587 267.735 400.832L266.839 402.032C266.636 401.851 266.428 401.712 266.215 401.616C266.001 401.509 265.772 401.456 265.527 401.456C264.897 401.456 264.38 401.696 263.975 402.176C263.58 402.656 263.383 403.291 263.383 404.08C263.383 404.859 263.575 405.488 263.959 405.968C264.353 406.448 264.86 406.688 265.479 406.688C265.788 406.688 266.076 406.624 266.343 406.496C266.62 406.357 266.871 406.197 267.095 406.016L267.847 407.232C267.484 407.552 267.079 407.792 266.631 407.952C266.183 408.112 265.735 408.192 265.287 408.192ZM269.185 408V396.704H270.993V403.76H271.041L273.953 400.144H275.969L273.281 403.344L276.241 408H274.241L272.225 404.592L270.993 406V408H269.185ZM279.08 408.192C278.397 408.192 277.837 407.979 277.4 407.552C276.973 407.125 276.76 406.571 276.76 405.888C276.76 405.045 277.128 404.395 277.864 403.936C278.6 403.467 279.773 403.147 281.384 402.976C281.373 402.56 281.261 402.203 281.048 401.904C280.845 401.595 280.477 401.44 279.944 401.44C279.56 401.44 279.181 401.515 278.808 401.664C278.445 401.813 278.088 401.995 277.736 402.208L277.064 400.976C277.501 400.699 277.992 400.459 278.536 400.256C279.09 400.053 279.677 399.952 280.296 399.952C281.277 399.952 282.008 400.245 282.488 400.832C282.978 401.408 283.224 402.245 283.224 403.344V408H281.704L281.576 407.136H281.512C281.16 407.435 280.781 407.685 280.376 407.888C279.981 408.091 279.549 408.192 279.08 408.192ZM279.672 406.752C279.992 406.752 280.28 406.677 280.536 406.528C280.802 406.368 281.085 406.155 281.384 405.888V404.128C280.317 404.267 279.576 404.475 279.16 404.752C278.744 405.019 278.536 405.349 278.536 405.744C278.536 406.096 278.642 406.352 278.856 406.512C279.069 406.672 279.341 406.752 279.672 406.752ZM287.732 408.192C286.825 408.192 286.18 407.931 285.796 407.408C285.422 406.875 285.236 406.187 285.236 405.344V401.6H284.116V400.224L285.332 400.144L285.556 398H287.092V400.144H289.092V401.6H287.092V405.344C287.092 406.261 287.46 406.72 288.196 406.72C288.334 406.72 288.478 406.704 288.628 406.672C288.777 406.629 288.905 406.587 289.012 406.544L289.332 407.904C289.118 407.979 288.873 408.043 288.596 408.096C288.329 408.16 288.041 408.192 287.732 408.192ZM290.533 408V396.704H292.373V399.616L292.309 401.136C292.639 400.827 293.007 400.555 293.413 400.32C293.818 400.075 294.287 399.952 294.821 399.952C295.663 399.952 296.277 400.224 296.661 400.768C297.045 401.312 297.237 402.08 297.237 403.072V408H295.397V403.312C295.397 402.661 295.301 402.203 295.109 401.936C294.917 401.669 294.602 401.536 294.165 401.536C293.823 401.536 293.519 401.621 293.253 401.792C292.997 401.952 292.703 402.192 292.373 402.512V408H290.533ZM302.458 408.192C301.808 408.192 301.2 408.032 300.634 407.712C300.069 407.381 299.61 406.912 299.258 406.304C298.906 405.685 298.73 404.944 298.73 404.08C298.73 403.205 298.906 402.464 299.258 401.856C299.61 401.237 300.069 400.768 300.634 400.448C301.2 400.117 301.808 399.952 302.458 399.952C303.12 399.952 303.733 400.117 304.298 400.448C304.864 400.768 305.322 401.237 305.674 401.856C306.026 402.464 306.202 403.205 306.202 404.08C306.202 404.944 306.026 405.685 305.674 406.304C305.322 406.912 304.864 407.381 304.298 407.712C303.733 408.032 303.12 408.192 302.458 408.192ZM302.458 406.688C303.034 406.688 303.488 406.448 303.818 405.968C304.149 405.488 304.314 404.859 304.314 404.08C304.314 403.291 304.149 402.656 303.818 402.176C303.488 401.696 303.034 401.456 302.458 401.456C301.882 401.456 301.429 401.696 301.098 402.176C300.778 402.656 300.618 403.291 300.618 404.08C300.618 404.859 300.778 405.488 301.098 405.968C301.429 406.448 301.882 406.688 302.458 406.688ZM307.811 408V400.144H309.331L309.459 401.2H309.523C309.875 400.859 310.259 400.565 310.675 400.32C311.091 400.075 311.566 399.952 312.099 399.952C312.942 399.952 313.555 400.224 313.939 400.768C314.323 401.312 314.515 402.08 314.515 403.072V408H312.675V403.312C312.675 402.661 312.579 402.203 312.387 401.936C312.195 401.669 311.881 401.536 311.443 401.536C311.102 401.536 310.798 401.621 310.531 401.792C310.275 401.952 309.982 402.192 309.651 402.512V408H307.811Z" fill="#2E3D49"/>
<rect x="421" y="368" width="70" height="24" rx="12" fill="white"/>
<path d="M430.394 385V374.536H432.25V383.432H436.602V385H430.394ZM441.21 385.192C440.485 385.192 439.829 385.032 439.242 384.712C438.656 384.381 438.192 383.912 437.85 383.304C437.509 382.685 437.338 381.944 437.338 381.08C437.338 380.227 437.509 379.491 437.85 378.872C438.202 378.253 438.656 377.779 439.21 377.448C439.765 377.117 440.346 376.952 440.954 376.952C441.669 376.952 442.266 377.112 442.746 377.432C443.226 377.741 443.589 378.179 443.834 378.744C444.08 379.299 444.202 379.944 444.202 380.68C444.202 381.064 444.176 381.363 444.122 381.576H439.13C439.216 382.269 439.466 382.808 439.882 383.192C440.298 383.576 440.821 383.768 441.45 383.768C441.792 383.768 442.106 383.72 442.394 383.624C442.693 383.517 442.986 383.373 443.274 383.192L443.898 384.344C443.525 384.589 443.109 384.792 442.65 384.952C442.192 385.112 441.712 385.192 441.21 385.192ZM439.114 380.328H442.602C442.602 379.72 442.469 379.245 442.202 378.904C441.936 378.552 441.536 378.376 441.002 378.376C440.544 378.376 440.133 378.547 439.77 378.888C439.418 379.219 439.2 379.699 439.114 380.328ZM447.464 385.192C446.781 385.192 446.221 384.979 445.784 384.552C445.357 384.125 445.144 383.571 445.144 382.888C445.144 382.045 445.512 381.395 446.248 380.936C446.984 380.467 448.157 380.147 449.768 379.976C449.757 379.56 449.645 379.203 449.432 378.904C449.229 378.595 448.861 378.44 448.328 378.44C447.944 378.44 447.565 378.515 447.192 378.664C446.829 378.813 446.472 378.995 446.12 379.208L445.448 377.976C445.885 377.699 446.376 377.459 446.92 377.256C447.475 377.053 448.061 376.952 448.68 376.952C449.661 376.952 450.392 377.245 450.872 377.832C451.363 378.408 451.608 379.245 451.608 380.344V385H450.088L449.96 384.136H449.896C449.544 384.435 449.165 384.685 448.76 384.888C448.365 385.091 447.933 385.192 447.464 385.192ZM448.056 383.752C448.376 383.752 448.664 383.677 448.92 383.528C449.187 383.368 449.469 383.155 449.768 382.888V381.128C448.701 381.267 447.96 381.475 447.544 381.752C447.128 382.019 446.92 382.349 446.92 382.744C446.92 383.096 447.027 383.352 447.24 383.512C447.453 383.672 447.725 383.752 448.056 383.752ZM453.598 385V377.144H455.118L455.246 378.2H455.31C455.662 377.859 456.046 377.565 456.462 377.32C456.878 377.075 457.352 376.952 457.886 376.952C458.728 376.952 459.342 377.224 459.726 377.768C460.11 378.312 460.302 379.08 460.302 380.072V385H458.462V380.312C458.462 379.661 458.366 379.203 458.174 378.936C457.982 378.669 457.667 378.536 457.23 378.536C456.888 378.536 456.584 378.621 456.318 378.792C456.062 378.952 455.768 379.192 455.438 379.512V385H453.598ZM469.409 385.192C468.609 385.192 467.911 385.032 467.313 384.712C466.716 384.392 466.252 383.88 465.921 383.176C465.601 382.472 465.441 381.549 465.441 380.408V374.536H467.297V380.552C467.297 381.309 467.383 381.912 467.553 382.36C467.735 382.797 467.985 383.112 468.305 383.304C468.625 383.485 468.993 383.576 469.409 383.576C469.836 383.576 470.209 383.485 470.529 383.304C470.86 383.112 471.116 382.797 471.297 382.36C471.489 381.912 471.585 381.309 471.585 380.552V374.536H473.361V380.408C473.361 381.549 473.201 382.472 472.881 383.176C472.561 383.88 472.103 384.392 471.505 384.712C470.919 385.032 470.22 385.192 469.409 385.192ZM474.485 385L477.461 379.608L474.677 374.536H476.741L477.893 376.856C478.021 377.091 478.144 377.341 478.261 377.608C478.389 377.864 478.533 378.147 478.693 378.456H478.757C478.885 378.147 479.003 377.864 479.109 377.608C479.227 377.341 479.344 377.091 479.461 376.856L480.565 374.536H482.533L479.749 379.688L482.725 385H480.661L479.381 382.536C479.243 382.259 479.104 381.987 478.965 381.72C478.837 381.443 478.693 381.144 478.533 380.824H478.469C478.331 381.144 478.197 381.443 478.069 381.72C477.952 381.987 477.829 382.259 477.701 382.536L476.453 385H474.485Z" fill="#2E3D49"/>
<rect x="615" y="326" width="71" height="24" rx="12" fill="white"/>
<path d="M626.684 337.432L626.316 338.712H628.988L628.62 337.432C628.449 336.877 628.284 336.307 628.124 335.72C627.974 335.133 627.825 334.552 627.676 333.976H627.612C627.473 334.563 627.324 335.149 627.164 335.736C627.014 336.312 626.854 336.877 626.684 337.432ZM623.18 343L626.588 332.536H628.764L632.172 343H630.22L629.404 340.168H625.884L625.068 343H623.18ZM635.825 346.472C635.207 346.472 634.647 346.397 634.145 346.248C633.655 346.099 633.265 345.869 632.977 345.56C632.7 345.261 632.561 344.883 632.561 344.424C632.561 343.773 632.935 343.213 633.681 342.744V342.68C633.479 342.552 633.308 342.381 633.169 342.168C633.041 341.955 632.977 341.688 632.977 341.368C632.977 341.059 633.063 340.781 633.233 340.536C633.415 340.28 633.617 340.072 633.841 339.912V339.848C633.575 339.645 633.335 339.363 633.121 339C632.919 338.637 632.817 338.227 632.817 337.768C632.817 337.16 632.961 336.648 633.249 336.232C633.537 335.816 633.916 335.501 634.385 335.288C634.865 335.064 635.377 334.952 635.921 334.952C636.135 334.952 636.337 334.973 636.529 335.016C636.732 335.048 636.913 335.091 637.073 335.144H639.889V336.504H638.449C638.577 336.653 638.684 336.845 638.769 337.08C638.855 337.304 638.897 337.555 638.897 337.832C638.897 338.408 638.764 338.899 638.497 339.304C638.231 339.699 637.873 339.997 637.425 340.2C636.977 340.403 636.476 340.504 635.921 340.504C635.751 340.504 635.575 340.488 635.393 340.456C635.212 340.424 635.031 340.371 634.849 340.296C634.732 340.403 634.636 340.509 634.561 340.616C634.497 340.723 634.465 340.867 634.465 341.048C634.465 341.272 634.556 341.448 634.737 341.576C634.929 341.704 635.265 341.768 635.745 341.768H637.137C638.087 341.768 638.801 341.923 639.281 342.232C639.772 342.531 640.017 343.021 640.017 343.704C640.017 344.216 639.847 344.68 639.505 345.096C639.164 345.523 638.679 345.859 638.049 346.104C637.42 346.349 636.679 346.472 635.825 346.472ZM635.921 339.352C636.295 339.352 636.615 339.213 636.881 338.936C637.148 338.659 637.281 338.269 637.281 337.768C637.281 337.277 637.148 336.899 636.881 336.632C636.625 336.355 636.305 336.216 635.921 336.216C635.537 336.216 635.212 336.349 634.945 336.616C634.679 336.883 634.545 337.267 634.545 337.768C634.545 338.269 634.679 338.659 634.945 338.936C635.212 339.213 635.537 339.352 635.921 339.352ZM636.113 345.272C636.743 345.272 637.255 345.144 637.649 344.888C638.044 344.632 638.241 344.339 638.241 344.008C638.241 343.699 638.119 343.491 637.873 343.384C637.639 343.277 637.297 343.224 636.849 343.224H635.777C635.351 343.224 634.993 343.187 634.705 343.112C634.3 343.421 634.097 343.768 634.097 344.152C634.097 344.504 634.279 344.776 634.641 344.968C635.004 345.171 635.495 345.272 636.113 345.272ZM641.189 343V335.144H643.029V343H641.189ZM642.117 333.768C641.787 333.768 641.52 333.672 641.317 333.48C641.115 333.288 641.013 333.032 641.013 332.712C641.013 332.403 641.115 332.152 641.317 331.96C641.52 331.768 641.787 331.672 642.117 331.672C642.448 331.672 642.715 331.768 642.917 331.96C643.12 332.152 643.221 332.403 643.221 332.712C643.221 333.032 643.12 333.288 642.917 333.48C642.715 333.672 642.448 333.768 642.117 333.768ZM646.957 343.192C646.306 343.192 645.842 342.995 645.565 342.6C645.298 342.205 645.165 341.667 645.165 340.984V331.704H647.005V341.08C647.005 341.304 647.047 341.464 647.133 341.56C647.218 341.645 647.309 341.688 647.405 341.688C647.447 341.688 647.485 341.688 647.517 341.688C647.559 341.677 647.618 341.667 647.693 341.656L647.933 343.032C647.826 343.075 647.687 343.112 647.517 343.144C647.357 343.176 647.17 343.192 646.957 343.192ZM652.656 343.192C651.931 343.192 651.275 343.032 650.688 342.712C650.102 342.381 649.638 341.912 649.296 341.304C648.955 340.685 648.784 339.944 648.784 339.08C648.784 338.227 648.955 337.491 649.296 336.872C649.648 336.253 650.102 335.779 650.656 335.448C651.211 335.117 651.792 334.952 652.4 334.952C653.115 334.952 653.712 335.112 654.192 335.432C654.672 335.741 655.035 336.179 655.28 336.744C655.526 337.299 655.648 337.944 655.648 338.68C655.648 339.064 655.622 339.363 655.568 339.576H650.576C650.662 340.269 650.912 340.808 651.328 341.192C651.744 341.576 652.267 341.768 652.896 341.768C653.238 341.768 653.552 341.72 653.84 341.624C654.139 341.517 654.432 341.373 654.72 341.192L655.344 342.344C654.971 342.589 654.555 342.792 654.096 342.952C653.638 343.112 653.158 343.192 652.656 343.192ZM650.56 338.328H654.048C654.048 337.72 653.915 337.245 653.648 336.904C653.382 336.552 652.982 336.376 652.448 336.376C651.99 336.376 651.579 336.547 651.216 336.888C650.864 337.219 650.646 337.699 650.56 338.328ZM664.264 343.192C663.464 343.192 662.766 343.032 662.168 342.712C661.571 342.392 661.107 341.88 660.776 341.176C660.456 340.472 660.296 339.549 660.296 338.408V332.536H662.152V338.552C662.152 339.309 662.238 339.912 662.408 340.36C662.59 340.797 662.84 341.112 663.16 341.304C663.48 341.485 663.848 341.576 664.264 341.576C664.691 341.576 665.064 341.485 665.384 341.304C665.715 341.112 665.971 340.797 666.152 340.36C666.344 339.912 666.44 339.309 666.44 338.552V332.536H668.216V338.408C668.216 339.549 668.056 340.472 667.736 341.176C667.416 341.88 666.958 342.392 666.36 342.712C665.774 343.032 665.075 343.192 664.264 343.192ZM669.34 343L672.316 337.608L669.532 332.536H671.596L672.748 334.856C672.876 335.091 672.999 335.341 673.116 335.608C673.244 335.864 673.388 336.147 673.548 336.456H673.612C673.74 336.147 673.858 335.864 673.964 335.608C674.082 335.341 674.199 335.091 674.316 334.856L675.42 332.536H677.388L674.604 337.688L677.58 343H675.516L674.236 340.536C674.098 340.259 673.959 339.987 673.82 339.72C673.692 339.443 673.548 339.144 673.388 338.824H673.324C673.186 339.144 673.052 339.443 672.924 339.72C672.807 339.987 672.684 340.259 672.556 340.536L671.308 343H669.34Z" fill="#2E3D49"/>
<rect x="114" y="368" width="113" height="24" rx="12" fill="white"/>
<path d="M127.443 383.672C128.265 383.672 128.921 383.32 129.411 382.616C129.902 381.912 130.147 380.947 130.147 379.72C130.147 378.547 129.902 377.629 129.411 376.968C128.921 376.296 128.265 375.96 127.443 375.96C126.622 375.96 125.966 376.296 125.475 376.968C124.985 377.629 124.739 378.547 124.739 379.72C124.739 380.947 124.985 381.912 125.475 382.616C125.966 383.32 126.622 383.672 127.443 383.672ZM130.771 387.784C129.737 387.784 128.862 387.533 128.147 387.032C127.443 386.531 126.921 385.891 126.579 385.112C125.833 384.973 125.177 384.675 124.611 384.216C124.046 383.747 123.609 383.133 123.299 382.376C122.99 381.608 122.835 380.723 122.835 379.72C122.835 378.589 123.027 377.624 123.411 376.824C123.806 376.024 124.35 375.411 125.043 374.984C125.737 374.557 126.537 374.344 127.443 374.344C128.361 374.344 129.166 374.557 129.859 374.984C130.553 375.411 131.091 376.024 131.475 376.824C131.87 377.624 132.067 378.589 132.067 379.72C132.067 381.171 131.747 382.365 131.107 383.304C130.467 384.232 129.614 384.819 128.547 385.064C128.793 385.48 129.134 385.784 129.571 385.976C130.009 386.168 130.478 386.264 130.979 386.264C131.214 386.264 131.422 386.248 131.603 386.216C131.795 386.184 131.966 386.147 132.115 386.104L132.451 387.48C132.281 387.555 132.046 387.624 131.747 387.688C131.459 387.752 131.134 387.784 130.771 387.784ZM136.124 385.192C135.282 385.192 134.668 384.92 134.284 384.376C133.9 383.832 133.708 383.064 133.708 382.072V377.144H135.548V381.832C135.548 382.483 135.644 382.941 135.836 383.208C136.028 383.475 136.338 383.608 136.764 383.608C137.106 383.608 137.404 383.523 137.66 383.352C137.927 383.181 138.21 382.904 138.508 382.52V377.144H140.348V385H138.844L138.7 383.848H138.652C138.311 384.253 137.938 384.579 137.532 384.824C137.127 385.069 136.658 385.192 136.124 385.192ZM142.467 385V377.144H144.307V385H142.467ZM143.395 375.768C143.064 375.768 142.797 375.672 142.595 375.48C142.392 375.288 142.291 375.032 142.291 374.712C142.291 374.403 142.392 374.152 142.595 373.96C142.797 373.768 143.064 373.672 143.395 373.672C143.725 373.672 143.992 373.768 144.195 373.96C144.397 374.152 144.499 374.403 144.499 374.712C144.499 375.032 144.397 375.288 144.195 375.48C143.992 375.672 143.725 375.768 143.395 375.768ZM149.722 385.192C149.007 385.192 148.362 385.032 147.786 384.712C147.221 384.381 146.767 383.912 146.426 383.304C146.095 382.685 145.93 381.944 145.93 381.08C145.93 380.205 146.111 379.464 146.474 378.856C146.837 378.237 147.317 377.768 147.914 377.448C148.522 377.117 149.173 376.952 149.866 376.952C150.367 376.952 150.805 377.037 151.178 377.208C151.551 377.379 151.882 377.587 152.17 377.832L151.274 379.032C151.071 378.851 150.863 378.712 150.65 378.616C150.437 378.509 150.207 378.456 149.962 378.456C149.333 378.456 148.815 378.696 148.41 379.176C148.015 379.656 147.818 380.291 147.818 381.08C147.818 381.859 148.01 382.488 148.394 382.968C148.789 383.448 149.295 383.688 149.914 383.688C150.223 383.688 150.511 383.624 150.778 383.496C151.055 383.357 151.306 383.197 151.53 383.016L152.282 384.232C151.919 384.552 151.514 384.792 151.066 384.952C150.618 385.112 150.17 385.192 149.722 385.192ZM153.62 385V373.704H155.428V380.76H155.476L158.388 377.144H160.404L157.716 380.344L160.676 385H158.676L156.66 381.592L155.428 383V385H153.62ZM164.758 385V377.144H166.598V385H164.758ZM165.686 375.768C165.356 375.768 165.089 375.672 164.886 375.48C164.684 375.288 164.582 375.032 164.582 374.712C164.582 374.403 164.684 374.152 164.886 373.96C165.089 373.768 165.356 373.672 165.686 373.672C166.017 373.672 166.284 373.768 166.486 373.96C166.689 374.152 166.79 374.403 166.79 374.712C166.79 375.032 166.689 375.288 166.486 375.48C166.284 375.672 166.017 375.768 165.686 375.768ZM171.486 385.192C170.504 385.192 169.72 384.829 169.134 384.104C168.547 383.379 168.254 382.371 168.254 381.08C168.254 380.227 168.408 379.491 168.718 378.872C169.038 378.253 169.454 377.779 169.966 377.448C170.478 377.117 171.016 376.952 171.582 376.952C172.03 376.952 172.408 377.032 172.718 377.192C173.038 377.341 173.347 377.549 173.646 377.816L173.582 376.552V373.704H175.422V385H173.902L173.774 384.152H173.71C173.422 384.44 173.086 384.685 172.702 384.888C172.318 385.091 171.912 385.192 171.486 385.192ZM171.934 383.672C172.52 383.672 173.07 383.379 173.582 382.792V379.128C173.315 378.883 173.048 378.712 172.782 378.616C172.515 378.52 172.248 378.472 171.982 378.472C171.48 378.472 171.048 378.701 170.686 379.16C170.334 379.608 170.158 380.243 170.158 381.064C170.158 381.907 170.312 382.552 170.622 383C170.931 383.448 171.368 383.672 171.934 383.672ZM180.913 385.192C180.187 385.192 179.531 385.032 178.945 384.712C178.358 384.381 177.894 383.912 177.553 383.304C177.211 382.685 177.041 381.944 177.041 381.08C177.041 380.227 177.211 379.491 177.553 378.872C177.905 378.253 178.358 377.779 178.913 377.448C179.467 377.117 180.049 376.952 180.657 376.952C181.371 376.952 181.969 377.112 182.449 377.432C182.929 377.741 183.291 378.179 183.537 378.744C183.782 379.299 183.905 379.944 183.905 380.68C183.905 381.064 183.878 381.363 183.825 381.576H178.833C178.918 382.269 179.169 382.808 179.585 383.192C180.001 383.576 180.523 383.768 181.153 383.768C181.494 383.768 181.809 383.72 182.097 383.624C182.395 383.517 182.689 383.373 182.977 383.192L183.601 384.344C183.227 384.589 182.811 384.792 182.353 384.952C181.894 385.112 181.414 385.192 180.913 385.192ZM178.817 380.328H182.305C182.305 379.72 182.171 379.245 181.905 378.904C181.638 378.552 181.238 378.376 180.705 378.376C180.246 378.376 179.835 378.547 179.473 378.888C179.121 379.219 178.902 379.699 178.817 380.328ZM187.166 385.192C186.484 385.192 185.924 384.979 185.486 384.552C185.06 384.125 184.846 383.571 184.846 382.888C184.846 382.045 185.214 381.395 185.95 380.936C186.686 380.467 187.86 380.147 189.47 379.976C189.46 379.56 189.348 379.203 189.134 378.904C188.932 378.595 188.564 378.44 188.03 378.44C187.646 378.44 187.268 378.515 186.894 378.664C186.532 378.813 186.174 378.995 185.822 379.208L185.15 377.976C185.588 377.699 186.078 377.459 186.622 377.256C187.177 377.053 187.764 376.952 188.382 376.952C189.364 376.952 190.094 377.245 190.574 377.832C191.065 378.408 191.31 379.245 191.31 380.344V385H189.79L189.662 384.136H189.598C189.246 384.435 188.868 384.685 188.462 384.888C188.068 385.091 187.636 385.192 187.166 385.192ZM187.758 383.752C188.078 383.752 188.366 383.677 188.622 383.528C188.889 383.368 189.172 383.155 189.47 382.888V381.128C188.404 381.267 187.662 381.475 187.246 381.752C186.83 382.019 186.622 382.349 186.622 382.744C186.622 383.096 186.729 383.352 186.942 383.512C187.156 383.672 187.428 383.752 187.758 383.752ZM195.818 385.192C194.912 385.192 194.266 384.931 193.882 384.408C193.509 383.875 193.322 383.187 193.322 382.344V378.6H192.202V377.224L193.418 377.144L193.642 375H195.178V377.144H197.178V378.6H195.178V382.344C195.178 383.261 195.546 383.72 196.282 383.72C196.421 383.72 196.565 383.704 196.714 383.672C196.864 383.629 196.992 383.587 197.098 383.544L197.418 384.904C197.205 384.979 196.96 385.043 196.682 385.096C196.416 385.16 196.128 385.192 195.818 385.192ZM198.619 385V377.144H200.459V385H198.619ZM199.547 375.768C199.217 375.768 198.95 375.672 198.747 375.48C198.545 375.288 198.443 375.032 198.443 374.712C198.443 374.403 198.545 374.152 198.747 373.96C198.95 373.768 199.217 373.672 199.547 373.672C199.878 373.672 200.145 373.768 200.347 373.96C200.55 374.152 200.651 374.403 200.651 374.712C200.651 375.032 200.55 375.288 200.347 375.48C200.145 375.672 199.878 375.768 199.547 375.768ZM205.81 385.192C205.16 385.192 204.552 385.032 203.986 384.712C203.421 384.381 202.962 383.912 202.61 383.304C202.258 382.685 202.082 381.944 202.082 381.08C202.082 380.205 202.258 379.464 202.61 378.856C202.962 378.237 203.421 377.768 203.986 377.448C204.552 377.117 205.16 376.952 205.81 376.952C206.472 376.952 207.085 377.117 207.65 377.448C208.216 377.768 208.674 378.237 209.026 378.856C209.378 379.464 209.554 380.205 209.554 381.08C209.554 381.944 209.378 382.685 209.026 383.304C208.674 383.912 208.216 384.381 207.65 384.712C207.085 385.032 206.472 385.192 205.81 385.192ZM205.81 383.688C206.386 383.688 206.84 383.448 207.17 382.968C207.501 382.488 207.666 381.859 207.666 381.08C207.666 380.291 207.501 379.656 207.17 379.176C206.84 378.696 206.386 378.456 205.81 378.456C205.234 378.456 204.781 378.696 204.45 379.176C204.13 379.656 203.97 380.291 203.97 381.08C203.97 381.859 204.13 382.488 204.45 382.968C204.781 383.448 205.234 383.688 205.81 383.688ZM211.164 385V377.144H212.684L212.812 378.2H212.876C213.228 377.859 213.612 377.565 214.028 377.32C214.444 377.075 214.918 376.952 215.452 376.952C216.294 376.952 216.908 377.224 217.292 377.768C217.676 378.312 217.868 379.08 217.868 380.072V385H216.028V380.312C216.028 379.661 215.932 379.203 215.74 378.936C215.548 378.669 215.233 378.536 214.796 378.536C214.454 378.536 214.15 378.621 213.884 378.792C213.628 378.952 213.334 379.192 213.004 379.512V385H211.164Z" fill="#2E3D49"/>
</svg>
