<svg width="2560" height="400" viewBox="0 0 2560 400" fill="none" xmlns="http://www.w3.org/2000/svg">
<g clip-path="url(#clip0_2280_26110)">
<path d="M1870.2 271.971H1926.4" stroke="white" stroke-width="4.11787" stroke-linecap="round"/>
<path d="M1870.2 287.299H1926.4" stroke="white" stroke-width="4.11787" stroke-linecap="round"/>
<path d="M1870.2 302.627H1926.4" stroke="white" stroke-width="4.11787" stroke-linecap="round"/>
<path d="M1870.2 317.955H1903.41" stroke="white" stroke-width="4.11787" stroke-linecap="round"/>
<path d="M1855.38 225.328V202.08C1855.38 200.669 1856.52 199.525 1857.93 199.525H1865.59C1867 199.525 1868.15 200.669 1868.15 202.08V212.427" stroke="white" stroke-width="4"/>
<path d="M1847.97 252.105V300.031C1847.97 306.089 1843.06 311 1837 311M1948.62 252.105V302.125C1948.62 307.026 1952.6 311 1957.5 311" stroke="white" stroke-width="4"/>
<path d="M1903.09 187.834L1901.63 189.208L1901.65 189.228L1901.67 189.248L1903.09 187.834ZM1965.82 259.956L1967.23 261.37L1967.23 261.37L1965.82 259.956ZM1898.26 201.79L1899.67 200.376L1898.26 198.962L1896.84 200.376L1898.26 201.79ZM1830.7 259.955L1829.28 261.369L1829.28 261.37L1830.7 259.955ZM1893.5 187.759L1894.91 189.173L1894.92 189.165L1894.93 189.156L1893.5 187.759ZM1893.56 187.698L1892.14 186.284L1892.14 186.284L1893.56 187.698ZM1897.62 185.782L1897.81 187.773L1897.81 187.773L1897.62 185.782ZM1902.96 187.696L1904.37 186.282L1904.37 186.282L1902.96 187.696ZM1903.09 187.834L1901.67 189.248L1964.4 251.977L1965.82 250.563L1967.23 249.148L1904.5 186.42L1903.09 187.834ZM1965.82 250.563L1964.4 251.977C1966.21 253.79 1966.21 256.729 1964.4 258.542L1965.82 259.956L1967.23 261.37C1970.61 257.995 1970.6 252.523 1967.23 249.148L1965.82 250.563ZM1965.82 259.956L1964.4 258.542C1962.59 260.355 1959.65 260.355 1957.84 258.542L1956.42 259.956L1955.01 261.37C1958.38 264.745 1963.86 264.745 1967.23 261.37L1965.82 259.956ZM1956.42 259.956L1957.84 258.542L1899.67 200.376L1898.26 201.79L1896.84 203.204L1955.01 261.37L1956.42 259.956ZM1898.26 201.79L1896.84 200.376L1838.68 258.541L1840.09 259.955L1841.51 261.37L1899.67 203.204L1898.26 201.79ZM1840.09 259.955L1838.68 258.541C1836.86 260.354 1833.92 260.354 1832.11 258.541L1830.7 259.955L1829.28 261.37C1832.66 264.745 1838.13 264.745 1841.51 261.37L1840.09 259.955ZM1830.7 259.955L1832.11 258.541C1830.3 256.728 1830.3 253.788 1832.11 251.975L1830.7 250.561L1829.28 249.147C1825.91 252.522 1825.91 257.994 1829.28 261.369L1830.7 259.955ZM1830.7 250.561L1832.11 251.975L1894.91 189.173L1893.5 187.759L1892.09 186.345L1829.28 249.147L1830.7 250.561ZM1893.5 187.759L1894.93 189.156C1894.95 189.14 1894.96 189.127 1894.97 189.118C1894.98 189.11 1894.98 189.1 1894.99 189.098C1894.99 189.094 1894.99 189.094 1894.99 189.096C1894.99 189.098 1894.98 189.104 1894.97 189.112L1893.56 187.698L1892.14 186.284C1892.11 186.318 1892.08 186.348 1892.07 186.359C1892.06 186.367 1892.06 186.368 1892.06 186.37C1892.06 186.371 1892.06 186.368 1892.07 186.363L1893.5 187.759ZM1893.56 187.698L1894.97 189.112C1895.77 188.317 1896.77 187.872 1897.81 187.773L1897.62 185.782L1897.43 183.791C1895.5 183.975 1893.62 184.807 1892.14 186.284L1893.56 187.698ZM1897.62 185.782L1897.81 187.773C1899.15 187.645 1900.52 188.092 1901.54 189.111L1902.96 187.696L1904.37 186.282C1902.47 184.383 1899.91 183.555 1897.43 183.791L1897.62 185.782ZM1902.96 187.696L1901.54 189.111C1901.54 189.11 1901.54 189.112 1901.55 189.116C1901.55 189.12 1901.56 189.125 1901.56 189.134C1901.57 189.143 1901.58 189.151 1901.59 189.164C1901.6 189.176 1901.62 189.192 1901.63 189.208L1903.09 187.834L1904.54 186.46C1904.54 186.456 1904.44 186.352 1904.37 186.282L1902.96 187.696Z" fill="white"/>
<path d="M1911.23 326.475L1921.91 337.438C1922.93 338.481 1924.61 338.466 1925.6 337.405L1944.15 317.656" stroke="white" stroke-width="4" stroke-linecap="round"/>
<circle cx="1898.06" cy="242.023" r="13.0989" stroke="white" stroke-width="4"/>
<path d="M-409 309C-410.105 309 -411 309.895 -411 311C-411 312.105 -410.105 313 -409 313L-409 311L-409 309ZM1837 311L1837 309L-409 309L-409 311L-409 313L1837 313L1837 311Z" fill="white"/>
<path d="M2099.47 315.023L2122.95 338.507" stroke="white" stroke-width="4.11787" stroke-linecap="round"/>
<path d="M2123.37 314.883L2099.88 338.367" stroke="white" stroke-width="4.11787" stroke-linecap="round"/>
<path d="M2040.38 165.328V142.08C2040.38 140.669 2041.52 139.525 2042.93 139.525H2050.59C2052 139.525 2053.15 140.669 2053.15 142.08V152.427" stroke="white" stroke-width="4"/>
<path d="M2088.09 127.834L2086.63 129.208L2086.65 129.228L2086.67 129.248L2088.09 127.834ZM2150.82 199.956L2152.23 201.37L2152.23 201.37L2150.82 199.956ZM2083.26 141.79L2084.67 140.376L2083.26 138.962L2081.84 140.376L2083.26 141.79ZM2015.7 199.955L2014.28 201.369L2014.28 201.37L2015.7 199.955ZM2078.5 127.759L2079.91 129.173L2079.92 129.165L2079.93 129.156L2078.5 127.759ZM2078.56 127.698L2077.14 126.284L2077.14 126.284L2078.56 127.698ZM2082.62 125.782L2082.81 127.773L2082.81 127.773L2082.62 125.782ZM2087.96 127.696L2089.37 126.282L2089.37 126.282L2087.96 127.696ZM2088.09 127.834L2086.67 129.248L2149.4 191.977L2150.82 190.563L2152.23 189.148L2089.5 126.42L2088.09 127.834ZM2150.82 190.563L2149.4 191.977C2151.21 193.79 2151.21 196.729 2149.4 198.542L2150.82 199.956L2152.23 201.37C2155.61 197.995 2155.6 192.523 2152.23 189.148L2150.82 190.563ZM2150.82 199.956L2149.4 198.542C2147.59 200.355 2144.65 200.355 2142.84 198.542L2141.42 199.956L2140.01 201.37C2143.38 204.745 2148.86 204.745 2152.23 201.37L2150.82 199.956ZM2141.42 199.956L2142.84 198.542L2084.67 140.376L2083.26 141.79L2081.84 143.204L2140.01 201.37L2141.42 199.956ZM2083.26 141.79L2081.84 140.376L2023.68 198.541L2025.09 199.955L2026.51 201.37L2084.67 143.204L2083.26 141.79ZM2025.09 199.955L2023.68 198.541C2021.86 200.354 2018.92 200.354 2017.11 198.541L2015.7 199.955L2014.28 201.37C2017.66 204.745 2023.13 204.745 2026.51 201.37L2025.09 199.955ZM2015.7 199.955L2017.11 198.541C2015.3 196.728 2015.3 193.788 2017.11 191.975L2015.7 190.561L2014.28 189.147C2010.91 192.522 2010.91 197.994 2014.28 201.369L2015.7 199.955ZM2015.7 190.561L2017.11 191.975L2079.91 129.173L2078.5 127.759L2077.09 126.345L2014.28 189.147L2015.7 190.561ZM2078.5 127.759L2079.93 129.156C2079.95 129.14 2079.96 129.127 2079.97 129.118C2079.98 129.11 2079.98 129.1 2079.99 129.098C2079.99 129.094 2079.99 129.094 2079.99 129.096C2079.99 129.098 2079.98 129.104 2079.97 129.112L2078.56 127.698L2077.14 126.284C2077.11 126.318 2077.08 126.348 2077.07 126.359C2077.06 126.367 2077.06 126.368 2077.06 126.37C2077.06 126.371 2077.06 126.368 2077.07 126.363L2078.5 127.759ZM2078.56 127.698L2079.97 129.112C2080.77 128.317 2081.77 127.872 2082.81 127.773L2082.62 125.782L2082.43 123.791C2080.5 123.975 2078.62 124.807 2077.14 126.284L2078.56 127.698ZM2082.62 125.782L2082.81 127.773C2084.15 127.645 2085.52 128.092 2086.54 129.111L2087.96 127.696L2089.37 126.282C2087.47 124.383 2084.91 123.555 2082.43 123.791L2082.62 125.782ZM2087.96 127.696L2086.54 129.111C2086.54 129.11 2086.54 129.112 2086.55 129.116C2086.55 129.12 2086.56 129.125 2086.56 129.134C2086.57 129.143 2086.58 129.151 2086.59 129.164C2086.6 129.176 2086.62 129.192 2086.63 129.208L2088.09 127.834L2089.54 126.46C2089.54 126.456 2089.44 126.352 2089.37 126.282L2087.96 127.696Z" fill="white"/>
<circle cx="2083.06" cy="182.023" r="13.0989" stroke="white" stroke-width="4"/>
<path d="M2414.48 315.023L2437.96 338.507" stroke="white" stroke-width="4.11787" stroke-linecap="round"/>
<path d="M2438.38 314.883L2414.89 338.367" stroke="white" stroke-width="4.11787" stroke-linecap="round"/>
<path d="M2056 271.971H2112.2" stroke="white" stroke-width="4.11787" stroke-linecap="round"/>
<path d="M2341.2 271.963H2427.2" stroke="white" stroke-width="4.11787" stroke-linecap="round"/>
<path d="M2056 287.299H2112.2" stroke="white" stroke-width="4.11787" stroke-linecap="round"/>
<path d="M2341.2 286.963H2427.2" stroke="white" stroke-width="4.11787" stroke-linecap="round"/>
<path d="M2056 302.627H2112.2" stroke="white" stroke-width="4.11787" stroke-linecap="round"/>
<path d="M2341.2 302.963H2427.2" stroke="white" stroke-width="4.11787" stroke-linecap="round"/>
<path d="M2056 317.955H2089.21" stroke="white" stroke-width="4.11787" stroke-linecap="round"/>
<path d="M2341.2 317.963H2392.2" stroke="white" stroke-width="4.11787" stroke-linecap="round"/>
<path d="M2208.88 76.1894V52.9414C2208.88 51.5305 2210.02 50.3867 2211.43 50.3867H2219.09C2220.5 50.3867 2221.65 51.5305 2221.65 52.9414V63.2881" stroke="white" stroke-width="4"/>
<path d="M2218 77.2881V66.9414C2218 65.5305 2219.14 64.3867 2220.55 64.3867H2228.22C2229.63 64.3867 2230.77 65.5305 2230.77 66.9414V77.2881" stroke="white" stroke-width="4"/>
<path d="M2032.97 192.105V298.226C2032.97 305.281 2027.25 311 2020.19 311C1997.84 311 1983.18 311 1957.5 311M2133.62 192.105V299.226C2133.62 306.281 2139.45 312 2146.5 312" stroke="white" stroke-width="4"/>
<path d="M2208.47 89.9648V299.086C2208.47 306.14 2202.75 311.859 2195.69 311.867C2169.8 311.896 2146 312 2146 312M2459.12 89.9648V301.984C2459.12 307.99 2463.99 312.859 2470 312.859H2565.5" stroke="white" stroke-width="4"/>
<path d="M2463.73 76.9988L2463.74 74.9988H2463.73V76.9988ZM2470.23 83.4988L2472.23 83.4989L2472.23 83.4988L2470.23 83.4988ZM2463.73 89.9988L2463.73 91.9988L2463.74 91.9988L2463.73 89.9988ZM2201.73 89.9988L2201.73 91.9988L2201.73 91.9988V89.9988ZM2195.23 83.4988L2193.23 83.4988L2193.23 83.4989L2195.23 83.4988ZM2201.73 76.9988L2201.73 74.9988L2201.73 74.9988L2201.73 76.9988ZM2463.73 76.9988L2463.73 78.9988C2466.22 78.999 2468.23 81.0139 2468.23 83.4988L2470.23 83.4988L2472.23 83.4988C2472.23 78.8044 2468.43 74.9992 2463.74 74.9988L2463.73 76.9988ZM2470.23 83.4988L2468.23 83.4988C2468.23 85.9838 2466.22 87.9987 2463.73 87.9988L2463.73 89.9988L2463.74 91.9988C2468.43 91.9985 2472.23 88.1932 2472.23 83.4989L2470.23 83.4988ZM2463.73 89.9988V87.9988H2201.73V89.9988V91.9988H2463.73V89.9988ZM2201.73 89.9988L2201.73 87.9988C2199.25 87.9987 2197.23 85.9838 2197.23 83.4988L2195.23 83.4988L2193.23 83.4989C2193.23 88.1932 2197.04 91.9985 2201.73 91.9988L2201.73 89.9988ZM2195.23 83.4988L2197.23 83.4988C2197.23 81.0139 2199.25 78.999 2201.73 78.9988L2201.73 76.9988L2201.73 74.9988C2197.04 74.9992 2193.23 78.8044 2193.23 83.4988L2195.23 83.4988ZM2201.73 76.9988V78.9988H2463.73V76.9988V74.9988H2201.73V76.9988Z" fill="white"/>
<rect x="2229" y="118.859" width="41" height="41" rx="2.55" stroke="white" stroke-width="4.12"/>
<rect x="2229" y="194.859" width="41" height="41" rx="2.55" stroke="white" stroke-width="4.12"/>
<rect x="2229" y="272" width="97" height="46" rx="2.55" stroke="white" stroke-width="4.12"/>
<rect x="2285" y="194.859" width="41" height="41" rx="2.55" stroke="white" stroke-width="4.12"/>
<rect x="2285" y="118.859" width="41" height="41" rx="2.55" stroke="white" stroke-width="4.12"/>
<path d="M2306 195V236" stroke="white" stroke-width="4.12"/>
<path d="M2306 195V236" stroke="white" stroke-width="4.12"/>
<path d="M2306 272.141V318.141" stroke="white" stroke-width="4.12"/>
<path d="M2306 119V160" stroke="white" stroke-width="4.12"/>
<path d="M2362 195V236" stroke="white" stroke-width="4.12"/>
<path d="M2250 195V236" stroke="white" stroke-width="4.12"/>
<path d="M2362 119V160" stroke="white" stroke-width="4.12"/>
<path d="M2418 195V236" stroke="white" stroke-width="4.12"/>
<path d="M2418 119V160" stroke="white" stroke-width="4.12"/>
<path d="M2250 272.141V318.141" stroke="white" stroke-width="4.12"/>
<path d="M2250 119V160" stroke="white" stroke-width="4.12"/>
<rect x="2341" y="118.859" width="41" height="41" rx="2.55" stroke="white" stroke-width="4.12"/>
<rect x="2397" y="118.859" width="41" height="41" rx="2.55" stroke="white" stroke-width="4.12"/>
<rect x="2341" y="194.859" width="41" height="41" rx="2.55" stroke="white" stroke-width="4.12"/>
<rect x="2397" y="194.859" width="41" height="41" rx="2.55" stroke="white" stroke-width="4.12"/>
<rect x="2050" y="214" width="66" height="33" rx="2.55" stroke="white" stroke-width="4.12"/>
<path d="M2083 214V247" stroke="white" stroke-width="4.12"/>
</g>
<defs>
<clipPath id="clip0_2280_26110">
<rect width="2560" height="400" fill="white"/>
</clipPath>
</defs>
</svg>
