<svg width="46" height="46" viewBox="0 0 46 46" fill="none" xmlns="http://www.w3.org/2000/svg">
<g clip-path="url(#clip0_2335_39433)">
<rect width="46" height="46" rx="6" fill="white"/>
<mask id="path-2-outside-1_2335_39433" maskUnits="userSpaceOnUse" x="-1" y="2" width="48" height="42" fill="black">
<rect fill="white" x="-1" y="2" width="48" height="42"/>
<path d="M22.9922 11.335H16.3271C13.574 11.335 11.3331 13.575 11.333 16.3281C11.333 19.0833 13.574 21.3241 16.3271 21.3242H22.9922V24.6582H22.8984V24.6748H19.6875L14.1562 34.665H29.6709C32.425 34.6649 34.6631 32.4212 34.6631 29.666C34.6629 26.9131 32.4239 24.6749 29.6709 24.6748H23.0049V21.3398H23.0928V21.3242H26.3037L31.834 11.335H23V8H37.4912L30.0996 21.3506C34.4921 21.5747 37.9979 25.2203 37.998 29.666C37.998 34.2617 34.2598 37.9999 29.6709 38H8.5L15.8906 24.6465C11.5017 24.4184 8 20.7743 8 16.3281C8.00006 11.7355 11.7351 8.00008 16.3271 8H22.9922V11.335Z"/>
</mask>
<path d="M22.9922 11.335H16.3271C13.574 11.335 11.3331 13.575 11.333 16.3281C11.333 19.0833 13.574 21.3241 16.3271 21.3242H22.9922V24.6582H22.8984V24.6748H19.6875L14.1562 34.665H29.6709C32.425 34.6649 34.6631 32.4212 34.6631 29.666C34.6629 26.9131 32.4239 24.6749 29.6709 24.6748H23.0049V21.3398H23.0928V21.3242H26.3037L31.834 11.335H23V8H37.4912L30.0996 21.3506C34.4921 21.5747 37.9979 25.2203 37.998 29.666C37.998 34.2617 34.2598 37.9999 29.6709 38H8.5L15.8906 24.6465C11.5017 24.4184 8 20.7743 8 16.3281C8.00006 11.7355 11.7351 8.00008 16.3271 8H22.9922V11.335Z" fill="black"/>
<path d="M22.9922 11.335V16.4601H28.1173V11.335H22.9922ZM16.3271 11.335L16.3271 6.20984L16.327 6.20984L16.3271 11.335ZM11.333 16.3281L6.20788 16.328V16.3281H11.333ZM16.3271 21.3242L16.327 26.4493H16.3271V21.3242ZM22.9922 21.3242H28.1173V16.1991H22.9922V21.3242ZM22.9922 24.6582V29.7833H28.1173V24.6582H22.9922ZM22.8984 24.6582V19.5331H17.7733V24.6582H22.8984ZM22.8984 24.6748V29.7999H28.0236V24.6748H22.8984ZM19.6875 24.6748V19.5497H16.6669L15.2037 22.1923L19.6875 24.6748ZM14.1562 34.665L9.67249 32.1825L5.46041 39.7902H14.1562V34.665ZM29.6709 34.665L29.6709 39.7902L29.6712 39.7902L29.6709 34.665ZM34.6631 29.666L39.7882 29.666L39.7882 29.6657L34.6631 29.666ZM29.6709 24.6748L29.6712 19.5497H29.6709V24.6748ZM23.0049 24.6748H17.8798V29.7999H23.0049V24.6748ZM23.0049 21.3398V16.2147H17.8798V21.3398H23.0049ZM23.0928 21.3398V26.465H28.2179V21.3398H23.0928ZM23.0928 21.3242V16.1991H17.9676V21.3242H23.0928ZM26.3037 21.3242V26.4493H29.3245L30.7876 23.8066L26.3037 21.3242ZM31.834 11.335L36.3178 13.8173L40.5295 6.20984L31.834 6.20984V11.335ZM23 11.335H17.8749V16.4601H23V11.335ZM23 8V2.87488H17.8749V8H23ZM37.4912 8L41.975 10.4825L46.187 2.87488L37.4912 2.87488V8ZM30.0996 21.3506L25.6158 18.8681L21.6391 26.0508L29.8385 26.4691L30.0996 21.3506ZM37.998 29.666L43.1232 29.666L43.1232 29.6658L37.998 29.666ZM29.6709 38L29.6709 43.1251L29.6711 43.1251L29.6709 38ZM8.5 38L4.01585 35.5182L-0.194269 43.1251H8.5V38ZM15.8906 24.6465L20.3748 27.1283L24.3456 19.9537L16.1565 19.5283L15.8906 24.6465ZM8 16.3281L2.87488 16.3281V16.3281H8ZM16.3271 8L16.3271 2.87488L16.3271 2.87488L16.3271 8ZM22.9922 8H28.1173V2.87488H22.9922V8ZM22.9922 11.335V6.20984H16.3271V11.335V16.4601H22.9922V11.335ZM16.3271 11.335L16.327 6.20984C10.7448 6.21001 6.208 10.7432 6.20788 16.328L11.333 16.3281L16.4581 16.3282C16.4581 16.341 16.4545 16.364 16.4449 16.3866C16.4368 16.4058 16.4278 16.4171 16.4212 16.4237C16.4146 16.4303 16.4035 16.4391 16.3846 16.4471C16.3623 16.4566 16.3397 16.4601 16.3273 16.4601L16.3271 11.335ZM11.333 16.3281H6.20788C6.20788 21.9127 10.7423 26.4492 16.327 26.4493L16.3271 21.3242L16.3273 16.1991C16.34 16.1991 16.3628 16.2027 16.3853 16.2122C16.4044 16.2203 16.4156 16.2292 16.4221 16.2358C16.4287 16.2423 16.4375 16.2534 16.4454 16.2721C16.4548 16.2942 16.4581 16.3164 16.4581 16.3281H11.333ZM16.3271 21.3242V26.4493H22.9922V21.3242V16.1991H16.3271V21.3242ZM22.9922 21.3242H17.8671V24.6582H22.9922H28.1173V21.3242H22.9922ZM22.9922 24.6582V19.5331H22.8984V24.6582V29.7833H22.9922V24.6582ZM22.8984 24.6582H17.7733V24.6748H22.8984H28.0236V24.6582H22.8984ZM22.8984 24.6748V19.5497H19.6875V24.6748V29.7999H22.8984V24.6748ZM19.6875 24.6748L15.2037 22.1923L9.67249 32.1825L14.1562 34.665L18.64 37.1475L24.1713 27.1573L19.6875 24.6748ZM14.1562 34.665V39.7902H29.6709V34.665V29.5399H14.1562V34.665ZM29.6709 34.665L29.6712 39.7902C35.2638 39.7899 39.7882 35.2435 39.7882 29.666H34.6631H29.538C29.538 29.6553 29.5411 29.6341 29.5501 29.6129C29.5577 29.595 29.5661 29.5843 29.5726 29.5778C29.5792 29.5712 29.5908 29.5619 29.6106 29.5535C29.6339 29.5436 29.6575 29.5399 29.6706 29.5399L29.6709 34.665ZM34.6631 29.666L39.7882 29.6657C39.7879 24.0812 35.2532 19.55 29.6712 19.5497L29.6709 24.6748L29.6706 29.7999C29.6588 29.7999 29.6363 29.7965 29.6136 29.7869C29.5945 29.7788 29.5829 29.7697 29.5758 29.7626C29.5687 29.7555 29.5594 29.7438 29.5512 29.7243C29.5414 29.7014 29.538 29.6785 29.538 29.6663L34.6631 29.666ZM29.6709 24.6748V19.5497H23.0049V24.6748V29.7999H29.6709V24.6748ZM23.0049 24.6748H28.13V21.3398H23.0049H17.8798V24.6748H23.0049ZM23.0049 21.3398V26.465H23.0928V21.3398V16.2147H23.0049V21.3398ZM23.0928 21.3398H28.2179V21.3242H23.0928H17.9676V21.3398H23.0928ZM23.0928 21.3242V26.4493H26.3037V21.3242V16.1991H23.0928V21.3242ZM26.3037 21.3242L30.7876 23.8066L36.3178 13.8173L31.834 11.335L27.3501 8.85261L21.8199 18.8419L26.3037 21.3242ZM31.834 11.335V6.20984H23V11.335V16.4601H31.834V11.335ZM23 11.335H28.1251V8H23H17.8749V11.335H23ZM23 8V13.1251H37.4912V8V2.87488H23V8ZM37.4912 8L33.0074 5.51754L25.6158 18.8681L30.0996 21.3506L34.5834 23.833L41.975 10.4825L37.4912 8ZM30.0996 21.3506L29.8385 26.4691C31.521 26.5549 32.8729 27.9649 32.8729 29.6662L37.998 29.666L43.1232 29.6658C43.1229 22.4757 37.4632 16.5944 30.3607 16.2321L30.0996 21.3506ZM37.998 29.666H32.8729C32.8729 31.4338 31.4266 32.8748 29.6707 32.8749L29.6709 38L29.6711 43.1251C37.093 43.1249 43.1232 37.0897 43.1232 29.666H37.998ZM29.6709 38V32.8749H8.5V38V43.1251H29.6709V38ZM8.5 38L12.9842 40.4818L20.3748 27.1283L15.8906 24.6465L11.4065 22.1647L4.01585 35.5182L8.5 38ZM15.8906 24.6465L16.1565 19.5283C14.4765 19.441 13.1251 18.0326 13.1251 16.3281H8H2.87488C2.87488 23.5161 8.52678 29.3959 15.6247 29.7647L15.8906 24.6465ZM8 16.3281L13.1251 16.3282C13.1251 14.5655 14.5662 13.1252 16.3272 13.1251L16.3271 8L16.3271 2.87488C8.90409 2.87501 2.87497 8.90546 2.87488 16.3281L8 16.3281ZM16.3271 8V13.1251H22.9922V8V2.87488H16.3271V8ZM22.9922 8H17.8671V11.335H22.9922H28.1173V8H22.9922Z" fill="white" mask="url(#path-2-outside-1_2335_39433)"/>
</g>
<defs>
<clipPath id="clip0_2335_39433">
<rect width="46" height="46" rx="6" fill="white"/>
</clipPath>
</defs>
</svg>
