<svg width="960" height="42" viewBox="0 0 960 42" fill="none" xmlns="http://www.w3.org/2000/svg">
<g clip-path="url(#clip0_192_5557)">
<path d="M960 42H0V4C0 1.791 1.791 0 4 0H956C958.209 0 960 1.791 960 4V42Z" fill="#2E3D49"/>
<path d="M24 29.333C27.866 29.333 31 26.199 31 22.333C31 18.467 27.866 15.333 24 15.333C20.134 15.333 17 18.467 17 22.333C17 26.199 20.134 29.333 24 29.333Z" fill="#EF7362"/>
<path d="M46 29.333C49.866 29.333 53 26.199 53 22.333C53 18.467 49.866 15.333 46 15.333C42.134 15.333 39 18.467 39 22.333C39 26.199 42.134 29.333 46 29.333Z" fill="#F8BE44"/>
<path d="M67 29.333C70.866 29.333 74 26.199 74 22.333C74 18.467 70.866 15.333 67 15.333C63.134 15.333 60 18.467 60 22.333C60 26.199 63.134 29.333 67 29.333Z" fill="#62BE43"/>
</g>
<defs>
<clipPath id="clip0_192_5557">
<rect width="960" height="42" fill="white"/>
</clipPath>
</defs>
</svg>
