<svg width="32" height="33" viewBox="0 0 32 33" fill="none" xmlns="http://www.w3.org/2000/svg">
<path d="M0 7.51235C0 3.47388 3.27393 0.199951 7.3124 0.199951H24.6874C28.7261 0.199951 32 3.47388 32 7.51235V24.8874C32 28.926 28.7261 32.1999 24.6874 32.1999H7.3124C3.27393 32.1999 0 28.926 0 24.8874V7.51235Z" fill="black"/>
<path d="M8.5 23.7C8.5 21.6289 10.1789 19.95 12.25 19.95H15.9999V23.7C15.9999 25.771 14.3211 27.45 12.25 27.45C10.1789 27.45 8.5 25.771 8.5 23.7Z" fill="#24CB71"/>
<path d="M16 4.94995V12.4498H19.75C21.8211 12.4498 23.5 10.771 23.5 8.69997C23.5 6.6289 21.8211 4.94995 19.75 4.94995H16Z" fill="#FF7237"/>
<path d="M19.7187 19.9499C21.7898 19.9499 23.4687 18.271 23.4687 16.1999C23.4687 14.1289 21.7898 12.45 19.7187 12.45C17.6477 12.45 15.9688 14.1289 15.9688 16.1999C15.9688 18.271 17.6477 19.9499 19.7187 19.9499Z" fill="#00B6FF"/>
<path d="M8.5 8.69997C8.5 10.771 10.1789 12.45 12.25 12.45H15.9999V4.94995H12.25C10.1789 4.94995 8.5 6.6289 8.5 8.69997Z" fill="#FF3737"/>
<path d="M8.5 16.2C8.5 18.2711 10.1789 19.9501 12.25 19.9501H15.9999V12.4502H12.25C10.1789 12.4502 8.5 14.129 8.5 16.2Z" fill="#874FFF"/>
</svg>
