<svg width="32" height="32" viewBox="0 0 32 32" fill="none" xmlns="http://www.w3.org/2000/svg">
<g clip-path="url(#clip0_2343_39882)">
<mask id="mask0_2343_39882" style="mask-type:luminance" maskUnits="userSpaceOnUse" x="0" y="0" width="32" height="32">
<path d="M32 0H0V32H32V0Z" fill="white"/>
</mask>
<g mask="url(#mask0_2343_39882)">
<path d="M10.3442 5.51562H24.4864C25.5909 5.51562 26.4854 6.41012 26.4861 7.51533V21.6574C26.4861 22.7619 25.5909 23.6571 24.4864 23.6571C23.3826 23.6564 22.4874 22.7612 22.4867 21.6574V12.3434L8.93007 25.9001C8.14872 26.6814 6.883 26.6814 6.10164 25.9001C5.32029 25.1187 5.32029 23.853 6.10164 23.0716L19.6575 9.51574H10.3435C9.79274 9.51503 9.29211 9.29158 8.93007 8.92954C8.56803 8.56751 8.34458 8.06829 8.34388 7.51604C8.34458 6.41083 9.23978 5.51562 10.3442 5.51562Z" fill="white"/>
</g>
</g>
<defs>
<clipPath id="clip0_2343_39882">
<rect width="32" height="32" fill="white"/>
</clipPath>
</defs>
</svg>
