<svg width="34" height="32" viewBox="0 0 34 32" fill="none" xmlns="http://www.w3.org/2000/svg">
<path d="M22.484 25.984C22.101 25.984 21.715 25.838 21.422 25.546C20.836 24.96 20.836 24.011 21.422 23.425C25.517 19.331 25.517 12.67 21.422 8.57599C20.836 7.98999 20.836 7.03999 21.422 6.45499C22.008 5.86999 22.958 5.86899 23.543 6.45499C26.093 9.00499 27.497 12.395 27.497 16.001C27.497 19.607 26.093 22.997 23.543 25.547C23.25 25.84 22.866 25.986 22.481 25.986V25.984H22.484ZM17.157 23.157C16.773 23.157 16.389 23.011 16.096 22.718C15.51 22.132 15.51 21.184 16.096 20.598C18.63 18.063 18.63 13.939 16.096 11.407C15.51 10.821 15.51 9.87099 16.096 9.28599C16.682 8.70099 17.631 8.69999 18.217 9.28599C21.921 12.99 21.921 19.016 18.217 22.721C17.924 23.012 17.54 23.158 17.157 23.157Z" fill="white"/>
<path d="M13 30C12.74 30 12.484 29.898 12.293 29.707L4.586 22H1C0.448 22 0 21.552 0 21V11C0 10.448 0.448 10 1 10H4.586L12.293 2.29301C12.579 2.00701 13.009 1.92101 13.383 2.07601C13.757 2.23101 14 2.59501 14 3.00001V29C14 29.404 13.756 29.77 13.383 29.924C13.259 29.975 13.129 30 13 30Z" fill="white"/>
</svg>
