<svg width="32" height="32" viewBox="0 0 32 32" fill="none" xmlns="http://www.w3.org/2000/svg">
<g clip-path="url(#clip0_234_4382)">
<path d="M10.3449 5.51469L24.4871 5.51469C25.5916 5.51469 26.4861 6.40918 26.4868 7.51439V21.6565C26.4868 22.761 25.5916 23.6562 24.4871 23.6562C23.3833 23.6555 22.4881 22.7603 22.4874 21.6565V12.3425L8.93072 25.8992C8.14937 26.6805 6.88365 26.6805 6.10229 25.8992C5.32094 25.1178 5.32094 23.8521 6.10229 23.0707L19.6582 9.5148L10.3442 9.5148C9.79339 9.51409 9.29276 9.29064 8.93072 8.9286C8.56868 8.56657 8.34523 8.06735 8.34453 7.5151C8.34523 6.40989 9.24043 5.51469 10.3449 5.51469Z" fill="#2E3D49"/>
</g>
<defs>
<clipPath id="clip0_234_4382">
<rect width="32" height="32" fill="white"/>
</clipPath>
</defs>
</svg>
